{
.appVersion = "3151";
.formatVersion = 3;
DisplayStrings = (
"ÁÁĂĂÂÂÄÄÀÀĀĀĄĄÅÅǺǺÃÃǼǼĆĆČČÇÇĈĈĊĊÐÐĎĎĐĐÉÉĔĔĚĚÊÊËËĖĖÈÈĒĒĘĘĞĞĜĜĠĠĦĦĤĤÍÍĬĬÎÎÏÏİİÌÌĪĪĮĮĨĨĴĴĹĹĽĽŁŁŃŃŇŇÑÑÓÓŎŎÔÔÖÖÒÒŐŐŌŌÕÕŔŔŘŘŚŚŠŠŜŜŦŦŤŤÚÚŬŬÛÛÜÜÙÙŰŰŪŪŲŲŮŮŨŨẂẂŴŴẄẄẀẀÝÝŶŶŸŸỲỲŹŹŽŽŻŻááăăââääààāāąąååǻǻããǽǽććččççĉĉċċđđééĕĕěěêêëëėėèèēēęęğğĝĝġġħħĥĥííĭĭîîïïììīīįįĩĩĵĵĺĺŀłłńńňňññóóŏŏôôööòòőőōōõõŕŕřřśśššŝŝŧŧúúŭŭûûüüùùűűūūșųųůůũũẃẃŵŵẅẅẁẁýýŷŷÿÿỳỳźźžžżż½½¼¼¾¾%%‰‰"
);
classes = (
{
automatic = 1;
code = "A Aacute Abreve Acircumflex Adieresis Agrave Amacron Aogonek Aring Aringacute Atilde AE AEacute B C Cacute Ccaron Ccedilla Ccircumflex Cdotaccent D Eth Dcaron Dcroat E Eacute Ebreve Ecaron Ecircumflex Edieresis Edotaccent Egrave Emacron Eogonek F G Gbreve Gcircumflex Gdotaccent H Hbar Hcircumflex I IJ Iacute Ibreve Icircumflex Idieresis Idotaccent Igrave Imacron Iogonek Itilde J Jcircumflex K L Lacute Lcaron Ldot Lslash M N Nacute Ncaron Eng Ntilde O Oacute Obreve Ocircumflex Odieresis Ograve Ohungarumlaut Omacron Oslash Oslashacute Otilde OE P Thorn Q R Racute Rcaron S Sacute Scaron Scedilla Scircumflex T Tbar Tcaron U Uacute Ubreve Ucircumflex Udieresis Ugrave Uhungarumlaut Umacron Uogonek Uring Utilde V W Wacute Wcircumflex Wdieresis Wgrave X Y Yacute Ycircumflex Ydieresis Ygrave Z Zacute Zcaron Zdotaccent uni0122 uni0136 uni013B uni0145 uni0156 uni0162 uni0218 uni021A uni0394 uni03A9";
name = Uppercase;
}
);
customParameters = (
{
name = glyphOrder;
value = (
A,
Aacute,
Abreve,
Acircumflex,
Adieresis,
Agrave,
Amacron,
Aogonek,
Aring,
Aringacute,
Atilde,
AE,
AEacute,
B,
C,
Cacute,
Ccaron,
Ccedilla,
Ccircumflex,
Cdotaccent,
D,
Eth,
Dcaron,
Dcroat,
E,
Eacute,
Ebreve,
Ecaron,
Ecircumflex,
Edieresis,
Edotaccent,
Egrave,
Emacron,
Eogonek,
F,
G,
Gbreve,
Gcircumflex,
Gdotaccent,
H,
Hbar,
Hcircumflex,
I,
IJ,
Iacute,
Ibreve,
Icircumflex,
Idieresis,
Idotaccent,
Igrave,
Imacron,
Iogonek,
Itilde,
J,
Jcircumflex,
K,
L,
Lacute,
Lcaron,
Ldot,
Lslash,
M,
N,
Nacute,
Ncaron,
Eng,
Ntilde,
O,
Oacute,
Obreve,
Ocircumflex,
Odieresis,
Ograve,

glyphs = (
{
glyphname = A;
kernLeft = A;
kernRight = A;
layers = (
{
layerId = UUID0;
shapes = (
{
closed = 1;
nodes = (
(130,-15,l),
(164,129,l),
(430,151,l),
(499,-15,l),
(589,0,l),
(459,650,l),
(217,665,l),
(30,0,l)
);
},
{
closed = 1;
nodes = (
(269,539,l),
(408,204,l),
(182,206,l),
(261,539,l)
);
}
);
width = 639;
}
);
unicode = 65;
},
{
glyphname = AE;
kernLeft = AE;
layers = (
{
layerId = UUID0;
shapes = (
{
closed = 1;
nodes = (
(782,367,l),
(516,364,l),
(477,558,l),
(806,597,l),
(809,664,l),
(428,652,l),
(217,665,l),
(30,0,l),
(130,-15,l),
(164,129,l),
(430,151,l),
(496,-9,l),
(806,0,l),
(810,103,l),
(575,69,l),
(529,296,l),
(787,277,l)
);
},
{
closed = 1;
nodes = (
(408,204,l),
(182,206,l),
(264,552,l)
);
}
);
width = 880;
}
);
unicode = 198;
},
{
glyphname = B;
layers = (
{
layerId = UUID0;
shapes = (
{
closed = 1;
nodes = (
(212,-22,o),
(282,-26,o),
(329,-26,cs),
(549,-26,o),
(630,57,o),
(630,153,cs),
(630,214,o),
(587,296,o),
(508,357,c),
(563,398,o),
(598,454,o),
(598,529,cs),
(598,558,o),
(593,591,o),
(581,627,c),
(525,662,o),
(452,675,o),
(381,675,cs),
(282,675,o),
(160,649,o),
(98,630,c),
(155,-14,l)
);
},
{
closed = 1;
nodes = (
(468,237,o),
(468,196,cs),
(468,137,o),
(449,83,o),
(433,51,c),
(420,46,o),
(375,45,o),
(359,45,cs),
(328,45,o),
(295,51,o),
(262,60,c),
(284,267,l),
(337,279,o),
(389,294,o),
(435,315,c),
(459,278,o)
);
},
{
closed = 1;
nodes = (
(436,534,o),
(436,494,cs),
(436,433,o),
(383,361,o),
(290,324,c),
(319,598,l),
(343,605,o),
(366,610,o),
(383,610,c),
(418,586,o)
);
}
);
width = 702;
}
);
unicode = 66;
},
{
glyphname = C;
layers = (
{
layerId = UUID0;
shapes = (
{
closed = 1;
nodes = (
(178,634,o),
(70,444,o),
(70,207,cs),
(70,155,o),
(75,100,o),
(87,41,c),
(132,4,o),
(224,-24,o),
(330,-24,cs),
(385,-24,o),
(444,-17,o),
(502,1,c),
(468,109,l),
(399,83,o),
(332,73,o),
(267,73,cs),
(234,73,o),
(202,75,o),
(171,80,c),
(171,263,o),
(286,460,o),
(471,578,c),
(278,700,l)
);
}
);
width = 502;
}
);
unicode = 67;
},
{
glyphname = D;
layers = (
{
layerId = UUID0;
shapes = (
{
closed = 1;
nodes = (
(436,-6,o),
(624,233,o),
(624,468,cs),
(624,526,o),
(613,583,o),
(591,637,c),
(531,666,o),
(459,677,o),
(386,677,cs),
(280,677,o),
(173,654,o),
(98,630,c),
(155,-14,l)
);
},
{
closed = 1;
nodes = (
(446,495,o),
(446,400,cs),
(446,268,o),
(391,122,o),
(264,70,c),
(319,603,l),
(334,607,o),
(349,610,o),
(363,610,c),
(417,578,o)
);
}
);
width = 654;
}
);
unicode = 68;
},
{
glyphname = E;
layers = (
{
layerId = UUID0;
shapes = (
{
closed = 1;
nodes = (
(535,103,l),
(259,71,l),
(286,294,l),
(512,277,l),
(507,367,l),
(294,365,l),
(320,572,l),
(531,597,l),
(534,664,l),
(93,650,l),
(140,-9,l),
(531,0,l)
);
}
);
width = 605;
}
);
unicode = 69;
},
{
glyphname = F;
layers = (
{
layerId = UUID0;
shapes = (
{
closed = 1;
nodes = (
(477,337,l),
(291,335,l),
(320,572,l),
(531,597,l),
(534,664,l),
(93,650,l),
(140,-9,l),
(250,-4,l),
(282,263,l),
(482,247,l)
);
}
);
width = 574;
}
);
unicode = 70;
},
{
glyphname = G;
layers = (
{
layerId = UUID0;
shapes = (
{
closed = 1;
nodes = (
(486,-42,l),
(546,310,l),
(356,298,l),
(376,79,l),
(346,72,o),
(314,69,o),
(279,69,cs),
(243,69,o),
(206,73,o),
(171,80,c),
(171,263,o),
(286,460,o),
(471,578,c),
(278,700,l),
(128,591,o),
(70,398,o),
(70,217,cs),
(70,159,o),
(76,103,o),
(87,51,c),
(132,14,o),
(224,-14,o),
(330,-14,cs),
(348,-14,o),
(366,-13,o),
(384,-11,c),
(388,-50,l)
);
}
);
width = 576;
}
);
unicode = 71;
},
{
glyphname = H;
layers = (
{
layerId = UUID0;
shapes = (
{
closed = 1;
nodes = (
(613,-6,l),
(684,663,l),
(456,648,l),
(485,304,l),
(288,306,l),
(326,665,l),
(98,650,l),
(155,-14,l),
(255,-4,l),
(279,229,l),
(490,246,l),
(513,-16,l)
);
}
);
width = 769;
}
);
unicode = 72;
},
{
glyphname = I;
layers = (
{
layerId = UUID0;
shapes = (
{
closed = 1;
nodes = (
(265,-4,l),
(336,665,l),
(98,650,l),
(155,-14,l)
);
}
);
width = 431;
}
);
unicode = 73;
},
{
glyphname = J;
layers = (
{
layerId = UUID0;
shapes = (
{
closed = 1;
nodes = (
(108,650,l),
(151,154,o),
(151,147,o),
(151,140,cs),
(151,92,o),
(134,50,o),
(79,50,cs),
(58,50,o),
(35,56,o),
(10,64,c),
(-8,10,l),
(33,-11,o),
(77,-24,o),
(119,-24,cs),
(203,-24,o),
(276,10,o),
(290,141,cs),
(346,665,l)
);
}
);
width = 421;
}
);
unicode = 74;
},
{
glyphname = K;
layers = (
{
layerId = UUID0;
shapes = (
{
closed = 1;
nodes = (
(536,665,l),
(304,363,l),
(336,665,l),
(98,650,l),
(155,-14,l),
(265,-4,l),
(292,248,l),
(314,271,l),
(449,-14,l),
(661,1,l),
(414,376,l),
(625,597,l)
);
}
);
width = 681;
}
);
unicode = 75;
},
{
glyphname = L;
layers = (
{
layerId = UUID0;
shapes = (
{
closed = 1;
nodes = (
(515,103,l),
(259,72,l),
(331,665,l),
(93,650,l),
(140,-9,l),
(511,0,l)
);
}
);
width = 505;
}
);
unicode = 76;
},
{
glyphname = M;
layers = (
{
layerId = UUID0;
shapes = (
{
closed = 1;
nodes = (
(859,0,l),
(829,650,l),
(587,665,l),
(470,184,l),
(369,660,l),
(127,650,l),
(80,-5,l),
(180,0,l),
(196,478,l),
(202,478,l),
(419,-15,l),
(509,0,l),
(618,517,l),
(626,517,l),
(769,-15,l)
);
}
);
width = 939;
}
);
unicode = 77;
},
{
glyphname = N;
layers = (
{
layerId = UUID0;
shapes = (
{
closed = 1;
nodes = (
(542,655,l),
(532,166,l),
(524,166,l),
(349,665,l),
(107,650,l),
(80,-5,l),
(180,0,l),
(177,521,l),
(185,521,l),
(509,-15,l),
(599,0,l),
(642,660,l)
);
}
);
width = 692;
}
);
unicode = 78;
},
{
glyphname = Eng;
layers = (
{
layerId = UUID0;
shapes = (
{
closed = 1;
nodes = (
(542,655,l),
(531,163,l),
(525,163,l),
(349,665,l),
(107,650,l),
(80,-5,l),
(180,0,l),
(177,519,l),
(185,519,l),
(408,151,l),
(454,74,o),
(480,6,o),
(480,-45,cs),
(480,-100,o),
(449,-134,o),
(383,-134,cs),
(362,-134,o),
(339,-128,o),
(314,-120,c),
(296,-174,l),
(337,-195,o),
(381,-208,o),
(423,-208,cs),
(507,-208,o),
(588,-158,o),
(598,-7,c),
(642,660,l)
);
}
);
width = 692;
}
);
unicode = 330;
},
{
glyphname = O;
layers = (
{
layerId = UUID0;
shapes = (
{
closed = 1;
nodes = (
(60,444,o),
(60,207,cs),
(60,155,o),
(65,100,o),
(77,41,c),
(122,4,o),
(194,-24,o),
(300,-24,cs),
(496,-24,o),
(539,54,o),
(539,207,cs),
(539,444,o),
(418,628,o),
(268,690,c),
(168,624,o)
);
},
{
closed = 1;
nodes = (
(414,157,o),
(400,96,c),
(357,81,o),
(298,73,o),
(242,73,cs),
(213,73,o),
(185,75,o),
(161,80,c),
(161,230,o),
(237,396,o),
(367,516,c),
(400,445,o),
(418,357,o),
(418,252,cs),
(418,198,o)
);
}
);
width = 589;
}
);
unicode = 79;
},
{
glyphname = Oslash;
layers = (
{
layerId = UUID0;
shapes = (
{
closed = 1;
nodes = (
(405,734,l),
(176,-111,l),
(242,-126,l),
(471,719,l)
);
},
{
ref = O;
}
);
width = 589;
}
);
unicode = 216;
},
{
glyphname = Oslashacute;
layers = (
{
layerId = UUID0;
shapes = (
{
closed = 1;
nodes = (
(400,715,l),
(176,-111,l),
(242,-126,l),
(466,700,l)
);
},
{
ref = O;
},
{
pos = (45,0);
ref = acute.case;
}
);
width = 589;
}
);
unicode = 510;
},
{
glyphname = OE;
layers = (
{
layerId = UUID0;
shapes = (
{
closed = 1;
nodes = (
(778,103,l),
(502,71,l),
(529,294,l),
(755,277,l),
(750,367,l),
(537,365,l),
(563,572,l),
(774,597,l),
(777,664,l),
(338,650,l),
(316,666,o),
(292,680,o),
(268,690,c),
(168,624,o),
(60,444,o),
(60,207,cs),
(60,155,o),
(65,100,o),
(77,41,c),
(122,4,o),
(194,-24,o),
(300,-24,cs),
(351,-24,o),
(392,-18,o),
(424,-8,c),
(774,0,l)
);
},
{
closed = 1;
nodes = (
(229,379,o),
(347,497,c),
(376,89,l),
(336,79,o),
(288,72,o),
(242,72,cs),
(213,72,o),
(185,75,o),
(161,80,c),
(161,222,o)
);
}
);
width = 848;
}
);
unicode = 338;
},
{
glyphname = P;
layers = (
{
layerId = UUID0;
shapes = (
{
closed = 1;
nodes = (
(255,-4,l),
(279,220,l),
(464,262,o),
(619,361,o),
(619,524,cs),
(619,557,o),
(613,591,o),
(601,627,c),
(545,662,o),
(471,675,o),
(396,675,cs),
(280,675,o),
(160,650,o),
(98,630,c),
(155,-14,l)
);
},
{
closed = 1;
nodes = (
(426,542,o),
(426,495,cs),
(426,422,o),
(376,337,o),
(286,288,c),
(319,603,l),
(334,607,o),
(349,610,o),
(363,610,c),
(405,585,o)
);
}
);
width = 629;
}
);
unicode = 80;
},
{
glyphname = Thorn;
layers = (
{
layerId = UUID0;
shapes = (
{
closed = 1;
nodes = (
(255,-4,l),
(265,97,l),
(456,137,o),
(619,237,o),
(619,404,cs),
(619,437,o),
(613,471,o),
(601,507,c),
(538,543,o),
(482,562,o),
(413,562,cs),
(383,562,o),
(350,558,o),
(314,551,c),
(326,665,l),
(98,630,l),
(155,-14,l)
);
},
{
closed = 1;
nodes = (
(426,422,o),
(426,375,cs),
(426,298,o),
(371,209,o),
(272,162,c),
(306,479,l),
(326,486,o),
(345,490,o),
(363,490,c),
(406,464,o)
);
}
);
width = 629;
}
);
unicode = 222;
},
{
glyphname = Q;
layers = (
{
layerId = UUID0;
shapes = (
{
closed = 1;
nodes = (
(60,444,o),
(60,207,cs),
(60,155,o),
(65,100,o),
(77,41,c),
(121,4,o),
(192,-23,o),
(295,-24,c),
(352,-165,l),
(532,-152,l),
(420,-9,l),
(515,19,o),
(539,92,o),
(539,207,cs),
(539,444,o),
(418,628,o),
(268,690,c),
(168,624,o)
);
},
{
closed = 1;
nodes = (
(414,157,o),
(400,96,c),
(357,81,o),
(298,73,o),
(242,73,cs),
(213,73,o),
(185,75,o),
(161,80,c),
(161,230,o),
(237,396,o),
(367,516,c),
(400,445,o),
(418,357,o),
(418,252,cs),
(418,198,o)
);
}
);
width = 589;
}
);
unicode = 81;
},
{
glyphname = R;
layers = (
{
layerId = UUID0;
shapes = (
{
closed = 1;
nodes = (
(255,-4,l),
(282,248,l),
(291,250,o),
(301,251,o),
(311,254,c),
(582,-38,l),
(652,1,l),
(484,320,l),
(571,369,o),
(629,438,o),
(629,528,cs),
(629,557,o),
(623,591,o),
(611,627,c),
(555,662,o),
(481,675,o),
(406,675,cs),
(290,675,o),
(160,650,o),
(98,630,c),
(155,-14,l)
);
},
{
closed = 1;
nodes = (
(436,544,o),
(436,501,cs),
(436,433,o),
(384,355,o),
(289,312,c),
(319,600,l),
(337,606,o),
(356,610,o),
(373,610,c),
(416,584,o)
);
}
);
width = 702;
}
);
unicode = 82;
},
{
glyphname = S;
layers = (
{
layerId = UUID0;
shapes = (
{
closed = 1;
nodes = (
(198,221,o),
(198,126,cs),
(198,90,o),
(179,58,o),
(111,20,c),
(159,-45,l),
(280,3,o),
(359,73,o),
(359,179,cs),
(359,263,o),
(258,324,o),
(258,413,cs),
(258,478,o),
(310,533,o),
(382,578,c),
(199,700,l),
(112,631,o),
(49,550,o),
(49,440,cs),
(49,292,o)
);
}
);
width = 431;
}
);
unicode = 83;
},
{
glyphname = Scedilla;
layers = (
{
layerId = UUID0;
shapes = (
{
closed = 1;
nodes = (
(96,-201,o),
(143,-208,o),
(173,-208,cs),
(223,-208,o),
(319,-187,o),
(319,-108,cs),
(319,-64,o),
(287,-28,o),
(248,0,c),
(317,44,o),
(359,102,o),
(359,179,cs),
(359,263,o),
(258,324,o),
(258,413,cs),
(258,478,o),
(310,533,o),
(382,578,c),
(199,700,l),
(112,631,o),
(49,550,o),
(49,440,cs),
(49,292,o),
(198,221,o),
(198,126,cs),
(198,90,o),
(179,53,o),
(111,15,c),
(176,-17,o),
(239,-57,o),
(258,-104,c),
(236,-113,o),
(222,-117,o),
(197,-117,cs),
(160,-117,o),
(132,-108,o),
(93,-91,c),
(59,-187,l)
);
}
);
width = 431;
}
);
unicode = 350;
},
{
glyphname = T;
kernLeft = T;
kernRight = T;
layers = (
{
layerId = UUID0;
shapes = (
{
closed = 1;
nodes = (
(21,548,l),
(161,562,l),
(211,-14,l),
(321,-4,l),
(383,584,l),
(523,598,l),
(526,665,l),
(15,651,l)
);
}
);
width = 541;
}
);
unicode = 84;
},
{
glyphname = U;
layers = (
{
layerId = UUID0;
shapes = (
{
closed = 1;
nodes = (
(511,655,l),
(502,191,ls),
(500,80,o),
(437,54,o),
(381,54,cs),
(314,54,o),
(272,85,o),
(272,168,cs),
(272,175,o),
(272,183,o),
(313,665,c),
(75,650,l),
(123,207,ls),
(141,36,o),
(233,-24,o),
(342,-24,cs),
(445,-24,o),
(570,10,o),
(581,190,cs),
(611,660,l)
);
}
);
width = 696;
}
);
unicode = 85;
},
{
glyphname = V;
kernLeft = V;
kernRight = V;
layers = (
{
layerId = UUID0;
shapes = (
{
closed = 1;
nodes = (
(15,638,l),
(262,-15,l),
(352,0,l),
(569,641,l),
(479,665,l),
(334,163,l),
(325,163,l),
(244,665,l)
);
}
);
width = 599;
}
);
unicode = 86;
},
{
glyphname = W;
kernLeft = V;
kernRight = V;
layers = (
{
layerId = UUID0;
shapes = (
{
closed = 1;
nodes = (
(29,638,l),
(239,-15,l),
(349,0,l),
(463,322,l),
(616,-15,l),
(706,0,l),
(883,641,l),
(793,665,l),
(678,157,l),
(670,157,l),
(566,611,l),
(486,635,l),
(335,161,l),
(327,161,l),
(258,665,l)
);
}
);
width = 923;
}
);
unicode = 87;
},
{
glyphname = X;
layers = (
{
layerId = UUID0;
shapes = (
{
closed = 1;
nodes = (
(145,-15,l),
(262,239,l),
(370,-14,l),
(601,15,l),
(404,329,l),
(598,638,l),
(483,665,l),
(369,418,l),
(281,665,l),
(50,637,l),
(224,323,l),
(30,13,l)
);
}
);
width = 631;
}
);
unicode = 88;
},
{
glyphname = Y;
kernLeft = V;
kernRight = V;
layers = (
{
layerId = UUID0;
shapes = (
{
closed = 1;
nodes = (
(4,638,l),
(202,209,l),
(233,-14,l),
(333,-4,l),
(371,235,l),
(543,640,l),
(462,662,l),
(318,303,l),
(309,303,l),
(229,665,l)
);
}
);
width = 558;
}
);
unicode = 89;
},
{
glyphname = Z;
layers = (
{
layerId = UUID0;
shapes = (
{
closed = 1;
nodes = (
(58,593,l),
(296,569,l),
(23,58,l),
(20,-9,l),
(509,0,l),
(503,103,l),
(130,68,l),
(520,546,l),
(506,650,l),
(55,660,l)
);
}
);
width = 560;
}
);
unicode = 90;
},
{
glyphname = uni0162;
kernLeft = T;
kernRight = T;
layers = (
{
layerId = UUID0;
shapes = (
{
closed = 1;
nodes = (
(164,-201,o),
(211,-208,o),
(241,-208,cs),
(291,-208,o),
(387,-187,o),
(387,-108,cs),
(387,-38,o),
(307,9,o),
(245,44,c),
(211,-14,l),
(273,-36,o),
(310,-71,o),
(326,-104,c),
(304,-113,o),
(290,-117,o),
(265,-117,cs),
(228,-117,o),
(200,-108,o),
(161,-91,c),
(127,-187,l)
);
},
{
ref = T;
}
);
width = 541;
}
);
unicode = 354;
},
{
glyphname = a;
kernLeft = a;
layers = (
{
layerId = UUID0;
shapes = (
{
closed = 1;
nodes = (
(489,-6,l),
(517,270,ls),
(518,277,o),
(519,296,o),
(519,308,cs),
(519,453,o),
(422,512,o),
(276,512,cs),
(202,512,o),
(129,495,o),
(85,477,c),
(129,332,l),
(166,355,o),
(205,365,o),
(240,365,cs),
(302,365,o),
(354,333,o),
(360,278,cs),
(362,256,l),
(325,261,o),
(291,263,o),
(262,263,cs),
(81,263,o),
(35,222,o),
(35,141,cs),
(35,76,o),
(65,9,o),
(110,-22,c),
(118,-23,o),
(127,-23,o),
(135,-23,cs),
(241,-23,o),
(323,36,o),
(367,130,c),
(375,130,l),
(390,-15,l)
);
},
{
closed = 1;
nodes = (
(254,96,o),
(210,89,c),
(200,99,o),
(191,130,o),
(191,153,cs),
(191,179,o),
(199,196,o),
(205,208,c),
(241,214,o),
(271,215,o),
(313,215,cs),
(331,215,o),
(349,214,o),
(366,214,c),
(333,116,o)
);
}
);
width = 580;
}
);
unicode = 97;
},
{
glyphname = ae;
kernLeft = a;
layers = (
{
layerId = UUID0;
shapes = (
{
closed = 1;
nodes = (
(254,96,o),
(210,89,c),
(200,99,o),
(191,130,o),
(191,153,cs),
(191,179,o),
(199,196,o),
(205,208,c),
(241,214,o),
(271,215,o),
(313,215,cs),
(331,215,o),
(349,214,o),
(366,214,c),
(333,116,o)
);
},
{
closed = 1;
nodes = (
(525,-24,o),
(629,-24,cs),
(682,-24,o),
(739,-18,o),
(793,-1,c),
(763,96,l),
(696,72,o),
(630,63,o),
(567,63,cs),
(534,63,o),
(495,65,o),
(465,69,c),
(465,102,o),
(471,135,o),
(484,167,c),
(514,160,o),
(559,156,o),
(604,156,cs),
(765,156,o),
(804,204,o),
(804,298,cs),
(804,419,o),
(671,497,o),
(562,539,c),
(529,521,o),
(496,491,o),
(466,451,c),
(424,493,o),
(358,512,o),
(276,512,cs),
(202,512,o),
(129,495,o),
(85,477,c),
(129,332,l),
(166,355,o),
(205,365,o),
(240,365,cs),
(302,365,o),
(355,333,o),
(360,278,cs),
(362,256,l),
(325,261,o),
(291,263,o),
(262,263,cs),
(81,263,o),
(35,222,o),
(35,141,cs),
(35,76,o),
(65,9,o),
(110,-22,c),
(118,-23,o),
(127,-23,o),
(135,-23,cs),
(247,-23,o),
(333,44,o),
(375,147,c),
(377,114,o),
(381,78,o),
(390,35,c),
(444,-6,o)
);
},
{
closed = 1;
nodes = (
(693,313,o),
(693,265,cs),
(693,253,o),
(692,240,o),
(690,227,c),
(651,219,o),
(597,213,o),
(546,213,cs),
(532,213,o),
(517,213,o),
(504,214,c),
(540,277,o),
(585,330,o),
(660,380,c),
(678,350,o)
);
}
);
width = 859;
}
);
unicode = 230;
},
{
glyphname = b;
layers = (
{
layerId = UUID0;
shapes = (
{
closed = 1;
nodes = (
(195,-11,o),
(274,-24,o),
(336,-24,cs),
(532,-24,o),
(582,54,o),
(582,207,cs),
(582,332,o),
(549,459,o),
(501,517,c),
(489,521,o),
(477,523,o),
(465,523,cs),
(384,523,o),
(309,440,o),
(257,315,c),
(248,315,l),
(284,716,l),
(70,683,l),
(117,28,l)
);
},
{
closed = 1;
nodes = (
(413,283,o),
(413,216,cs),
(413,135,o),
(405,88,o),
(398,52,c),
(359,42,o),
(326,40,o),
(281,40,cs),
(262,40,o),
(242,41,o),
(224,43,c),
(262,329,o),
(345,385,o),
(393,404,c),
(403,375,o)
);
}
);
width = 665;
}
);
unicode = 98;
},
{
glyphname = c;
kernLeft = c;
layers = (
{
layerId = UUID0;
shapes = (
{
closed = 1;
nodes = (
(147,489,o),
(50,347,o),
(50,169,cs),
(50,130,o),
(54,88,o),
(65,35,c),
(105,1,o),
(188,-24,o),
(284,-24,cs),
(333,-24,o),
(386,-18,o),
(438,-1,c),
(408,96,l),
(346,72,o),
(285,63,o),
(227,63,cs),
(197,63,o),
(168,65,o),
(140,69,c),
(140,207,o),
(244,337,o),
(410,426,c),
(237,539,l)
);
}
);
width = 460;
}
);
unicode = 99;
},
{
glyphname = d;
layers = (
{
layerId = UUID0;
shapes = (
{
closed = 1;
nodes = (
(567,-6,l),
(631,716,l),
(417,683,l),
(432,468,l),
(392,484,o),
(343,496,o),
(291,496,cs),
(133,496,o),
(83,418,o),
(83,265,cs),
(83,140,o),
(116,35,o),
(165,-15,c),
(173,-19,o),
(197,-23,o),
(205,-23,cs),
(305,-23,o),
(392,29,o),
(447,157,c),
(455,157,l),
(468,-15,l)
);
},
{
closed = 1;
nodes = (
(441,368,o),
(441,353,cs),
(441,136,o),
(324,68,o),
(273,58,c),
(263,87,o),
(253,179,o),
(253,246,cs),
(253,327,o),
(260,386,o),
(267,422,c),
(284,431,o),
(306,436,o),
(330,436,cs),
(367,436,o),
(409,424,o),
(439,400,c),
(440,384,o)
);
}
);
width = 701;
}
);
unicode = 100;
},
{
glyphname = eth;
layers = (
{
layerId = UUID0;
shapes = (
{
closed = 1;
nodes = (
(318,45,o),
(292,45,cs),
(274,45,o),
(256,48,o),
(239,52,c),
(232,78,o),
(224,111,o),
(224,169,cs),
(224,217,o),
(227,283,o),
(239,304,c),
(280,290,o),
(345,247,o),
(375,66,c),
(344,51,o)
);
},
{
closed = 1;
nodes = (
(332,326,o),
(266,377,o),
(191,377,cs),
(172,377,o),
(151,374,o),
(131,367,c),
(83,320,o),
(50,266,o),
(50,164,cs),
(50,40,o),
(100,-24,o),
(271,-24,cs),
(365,-24,o),
(450,4,o),
(495,41,c),
(507,100,o),
(512,155,o),
(512,207,cs),
(512,444,o),
(394,654,o),
(294,720,c),
(142,619,l),
(216,551,o),
(349,366,o),
(385,235,c),
(373,228,l)
);
},
{
pos = (159,141);
ref = eslash;
}
);
width = 585;
}
);
unicode = 240;
},
{
glyphname = e;
kernLeft = c;
layers = (
{
layerId = UUID0;
shapes = (
{
closed = 1;
nodes = (
(50,347,o),
(50,169,cs),
(50,130,o),
(54,88,o),
(66,35,c),
(119,-6,o),
(200,-24,o),
(304,-24,cs),
(357,-24,o),
(414,-18,o),
(468,-1,c),
(438,96,l),
(371,72,o),
(305,63,o),
(242,63,cs),
(209,63,o),
(170,65,o),
(140,69,c),
(140,102,o),
(146,135,o),
(159,167,c),
(189,160,o),
(234,156,o),
(279,156,cs),
(440,156,o),
(479,204,o),
(479,298,cs),
(479,419,o),
(346,497,o),
(237,539,c),
(144,487,o)
);
},
{
closed = 1;
nodes = (
(368,313,o),
(368,265,cs),
(368,253,o),
(367,240,o),
(365,227,c),
(326,219,o),
(272,213,o),
(221,213,cs),
(207,213,o),
(192,213,o),
(179,214,c),
(215,277,o),
(260,330,o),
(335,380,c),
(353,350,o)
);
}
);
width = 534;
}
);
unicode = 101;
},
{
glyphname = f;
layers = (
{
layerId = UUID0;
shapes = (
{
closed = 1;
nodes = (
(230,738,o),
(121,657,o),
(110,463,c),
(20,459,l),
(26,356,l),
(111,369,l),
(151,-15,l),
(250,-6,l),
(299,397,l),
(398,412,l),
(401,479,l),
(236,470,l),
(260,518,o),
(301,556,o),
(366,579,c),
(329,750,l)
);
}
);
width = 431;
}
);
unicode = 102;
},
{
glyphname = g;
layers = (
{
layerId = UUID0;
shapes = (
{
closed = 1;
nodes = (
(441,372,o),
(441,358,cs),
(441,152,o),
(323,87,o),
(273,78,c),
(263,105,o),
(253,193,o),
(253,256,cs),
(253,333,o),
(260,389,o),
(267,423,c),
(284,432,o),
(306,437,o),
(330,437,cs),
(367,437,o),
(409,425,o),
(439,402,c),
(440,386,o)
);
},
{
closed = 1;
nodes = (
(458,485,l),
(436,456,l),
(395,483,o),
(345,496,o),
(291,496,cs),
(133,496,o),
(83,421,o),
(83,274,cs),
(83,154,o),
(116,53,o),
(165,5,c),
(173,1,o),
(197,-3,o),
(205,-3,cs),
(311,-3,o),
(404,54,o),
(457,196,c),
(465,196,l),
(486,-9,o),
(486,-17,o),
(486,-25,cs),
(486,-92,o),
(452,-139,o),
(376,-139,cs),
(335,-139,o),
(284,-126,o),
(225,-100,c),
(197,-150,l),
(268,-197,o),
(330,-220,o),
(403,-220,cs),
(506,-220,o),
(568,-150,o),
(581,-45,cs),
(650,514,l)
);
}
);
width = 720;
}
);
unicode = 103;
},
{
glyphname = h;
layers = (
{
layerId = UUID0;
shapes = (
{
closed = 1;
nodes = (
(220,-6,l),
(260,324,o),
(345,385,o),
(397,404,c),
(408,282,o),
(414,178,o),
(414,-15,c),
(594,0,l),
(594,133,o),
(583,423,o),
(505,517,c),
(493,521,o),
(481,523,o),
(469,523,cs),
(386,523,o),
(309,436,o),
(256,304,c),
(247,304,l),
(284,716,l),
(70,683,l),
(121,-15,l)
);
}
);
width = 665;
}
);
unicode = 104;
},
{
glyphname = i;
layers = (
{
layerId = UUID0;
shapes = (
{
closed = 1;
nodes = (
(220,-6,l),
(284,513,l),
(70,480,l),
(121,-15,l)
);
},
{
closed = 1;
nodes = (
(116,564,o),
(167,564,cs),
(218,564,o),
(260,606,o),
(260,657,cs),
(260,708,o),
(218,750,o),
(167,750,cs),
(116,750,o),
(74,708,o),
(74,657,cs),
(74,606,o)
);
}
);
width = 354;
}
);
unicode = 105;
},
{
glyphname = dotlessi;
layers = (
{
layerId = UUID0;
shapes = (
{
closed = 1;
nodes = (
(220,-6,l),
(284,513,l),
(70,480,l),
(121,-15,l)
);
}
);
width = 354;
}
);
unicode = 305;
},
{
glyphname = j;
layers = (
{
layerId = UUID0;
shapes = (
{
closed = 1;
nodes = (
(116,564,o),
(167,564,cs),
(218,564,o),
(260,606,o),
(260,657,cs),
(260,708,o),
(218,750,o),
(167,750,cs),
(116,750,o),
(74,708,o),
(74,657,cs),
(74,606,o)
);
},
{
closed = 1;
nodes = (
(70,480,l),
(115,48,o),
(116,38,o),
(116,28,cs),
(116,-27,o),
(96,-60,o),
(45,-60,cs),
(28,-60,o),
(-2,-53,o),
(-22,-39,c),
(-52,-90,l),
(-12,-122,o),
(29,-135,o),
(68,-135,cs),
(146,-135,o),
(208,-102,o),
(220,-5,cs),
(284,512,l)
);
}
);
width = 354;
}
);
unicode = 106;
},
{
glyphname = k;
layers = (
{
layerId = UUID0;
shapes = (
{
closed = 1;
nodes = (
(459,536,l),
(246,284,l),
(284,716,l),
(70,683,l),
(121,-15,l),
(220,-6,l),
(237,185,l),
(273,219,l),
(398,-15,l),
(588,-2,l),
(371,322,l),
(526,484,l)
);
}
);
width = 598;
}
);
unicode = 107;
},
{
glyphname = kgreenlandic;
layers = (
{
layerId = UUID0;
shapes = (
{
closed = 1;
nodes = (
(220,-6,l),
(244,188,l),
(273,219,l),
(398,-15,l),
(588,-2,l),
(371,322,l),
(526,484,l),
(459,536,l),
(257,298,l),
(284,513,l),
(70,480,l),
(121,-15,l)
);
}
);
width = 598;
}
);
unicode = 312;
},
{
glyphname = l;
layers = (
{
layerId = UUID0;
shapes = (
{
closed = 1;
nodes = (
(220,-6,l),
(284,716,l),
(70,683,l),
(121,-15,l)
);
}
);
width = 354;
}
);
unicode = 108;
},
{
glyphname = m;
layers = (
{
layerId = UUID0;
shapes = (
{
closed = 1;
nodes = (
(859,127,o),
(848,423,o),
(770,517,c),
(758,521,o),
(745,523,o),
(733,523,cs),
(663,523,o),
(598,453,o),
(551,343,c),
(543,343,l),
(529,416,o),
(509,481,o),
(480,517,c),
(468,521,o),
(455,523,o),
(443,523,cs),
(376,523,o),
(314,459,o),
(267,358,c),
(260,358,l),
(279,514,l),
(65,481,l),
(116,-15,l),
(215,-6,l),
(224,67,ls),
(254,314,o),
(330,386,o),
(374,404,c),
(384,282,o),
(389,178,o),
(389,-15,c),
(505,-6,l),
(541,324,o),
(617,385,o),
(664,404,c),
(674,282,o),
(679,178,o),
(679,-15,c),
(859,-6,l)
);
}
);
width = 930;
}
);
unicode = 109;
},
{
glyphname = n;
layers = (
{
layerId = UUID0;
shapes = (
{
closed = 1;
nodes = (
(215,-6,l),
(255,324,o),
(340,385,o),
(392,404,c),
(403,282,o),
(409,178,o),
(409,-15,c),
(589,0,l),
(589,133,o),
(578,423,o),
(500,517,c),
(488,521,o),
(475,523,o),
(463,523,cs),
(388,523,o),
(318,451,o),
(266,338,c),
(257,338,l),
(279,514,l),
(65,481,l),
(116,-15,l)
);
}
);
width = 660;
}
);
unicode = 110;
},
{
glyphname = eng;
layers = (
{
layerId = UUID0;
shapes = (
{
closed = 1;
nodes = (
(578,423,o),
(500,517,c),
(488,521,o),
(475,523,o),
(463,523,cs),
(388,523,o),
(318,451,o),
(266,338,c),
(257,338,l),
(279,514,l),
(65,481,l),
(116,-15,l),
(215,-6,l),
(255,324,o),
(340,385,o),
(392,404,c),
(402,290,o),
(410,3,o),
(410,-48,cs),
(410,-103,o),
(390,-136,o),
(339,-136,cs),
(322,-136,o),
(292,-129,o),
(272,-115,c),
(242,-166,l),
(282,-198,o),
(323,-211,o),
(387,-211,cs),
(440,-211,o),
(589,-186,o),
(589,24,cs),
(589,157,o)
);
}
);
width = 660;
}
);
unicode = 331;
},
{
glyphname = o;
kernLeft = c;
layers = (
{
layerId = UUID0;
shapes = (
{
closed = 1;
nodes = (
(50,371,o),
(50,184,cs),
(50,137,o),
(54,87,o),
(65,34,c),
(106,1,o),
(171,-24,o),
(266,-24,cs),
(442,-24,o),
(488,46,o),
(488,184,cs),
(488,364,o),
(357,477,o),
(238,539,c),
(178,509,o)
);
},
{
closed = 1;
nodes = (
(367,126,o),
(356,84,c),
(317,71,o),
(262,63,o),
(212,63,cs),
(187,63,o),
(162,65,o),
(141,69,c),
(141,191,o),
(220,326,o),
(332,385,c),
(359,332,o),
(372,273,o),
(372,211,cs),
(372,169,o)
);
}
);
width = 538;
}
);
unicode = 111;
},
{
glyphname = oslash;
layers = (
{
layerId = UUID0;
shapes = (
{
closed = 1;
nodes = (
(360,664,l),
(131,-181,l),
(197,-196,l),
(426,649,l)
);
},
{
ref = o;
}
);
width = 538;
}
);
unicode = 248;
},
{
glyphname = oslashacute;
kernLeft = c;
layers = (
{
layerId = UUID0;
shapes = (
{
closed = 1;
nodes = (
(333,564,l),
(131,-181,l),
(197,-196,l),
(399,549,l)
);
},
{
ref = o;
},
{
pos = (20,0);
ref = acute;
}
);
width = 538;
}
);
unicode = 511;
},
{
glyphname = oe;
kernLeft = c;
layers = (
{
layerId = UUID0;
shapes = (
{
closed = 1;
nodes = (
(367,126,o),
(356,84,c),
(317,71,o),
(262,63,o),
(212,63,cs),
(187,63,o),
(162,65,o),
(141,69,c),
(141,191,o),
(220,326,o),
(332,385,c),
(359,332,o),
(372,273,o),
(372,211,cs),
(372,169,o)
);
},
{
closed = 1;
nodes = (
(540,-24,o),
(626,-24,cs),
(679,-24,o),
(736,-18,o),
(790,-1,c),
(760,96,l),
(693,72,o),
(627,63,o),
(564,63,cs),
(531,63,o),
(492,65,o),
(462,69,c),
(462,102,o),
(468,135,o),
(481,167,c),
(511,160,o),
(556,156,o),
(601,156,cs),
(762,156,o),
(801,204,o),
(801,298,cs),
(801,419,o),
(668,497,o),
(559,539,c),
(510,512,o),
(459,458,o),
(423,385,c),
(374,454,o),
(304,504,o),
(238,539,c),
(178,509,o),
(50,371,o),
(50,184,cs),
(50,137,o),
(54,87,o),
(65,34,c),
(106,1,o),
(171,-24,o),
(266,-24,cs),
(338,-24,o),
(384,-7,o),
(418,16,c),
(470,-11,o)
);
},
{
closed = 1;
nodes = (
(690,313,o),
(690,265,cs),
(690,253,o),
(689,240,o),
(687,227,c),
(648,219,o),
(594,213,o),
(543,213,cs),
(529,213,o),
(514,213,o),
(501,214,c),
(537,277,o),
(582,330,o),
(657,380,c),
(675,350,o)
);
}
);
width = 856;
}
);
unicode = 339;
},
{
glyphname = p;
layers = (
{
layerId = UUID0;
shapes = (
{
closed = 1;
nodes = (
(204,-208,l),
(231,10,l),
(274,-10,o),
(327,-24,o),
(386,-24,cs),
(544,-24,o),
(594,54,o),
(594,207,cs),
(594,332,o),
(561,459,o),
(513,517,c),
(501,521,o),
(488,523,o),
(476,523,cs),
(401,523,o),
(331,450,o),
(279,338,c),
(272,338,l),
(294,514,l),
(80,481,l),
(111,-217,l)
);
},
{
closed = 1;
nodes = (
(357,385,o),
(405,404,c),
(415,375,o),
(425,283,o),
(425,216,cs),
(425,135,o),
(417,88,o),
(410,52,c),
(393,43,o),
(371,38,o),
(347,38,cs),
(310,38,o),
(269,50,o),
(239,74,c),
(275,359,o)
);
}
);
width = 677;
}
);
unicode = 112;
},
{
glyphname = thorn;
layers = (
{
layerId = UUID0;
shapes = (
{
closed = 1;
nodes = (
(204,-208,l),
(226,12,l),
(269,-8,o),
(325,-24,o),
(386,-24,cs),
(544,-24,o),
(594,54,o),
(594,207,cs),
(594,332,o),
(561,459,o),
(513,517,c),
(501,521,o),
(488,523,o),
(476,523,cs),
(393,523,o),
(315,434,o),
(262,301,c),
(254,301,l),
(296,716,l),
(82,683,l),
(82,-217,l)
);
},
{
closed = 1;
nodes = (
(357,385,o),
(405,404,c),
(415,375,o),
(425,283,o),
(425,216,cs),
(425,135,o),
(417,88,o),
(410,52,c),
(393,43,o),
(371,38,o),
(347,38,cs),
(310,38,o),
(269,50,o),
(239,74,c),
(275,359,o)
);
}
);
width = 677;
}
);
unicode = 254;
},
{
glyphname = q;
layers = (
{
layerId = UUID0;
shapes = (
{
closed = 1;
nodes = (
(560,-208,l),
(650,514,l),
(458,485,l),
(436,456,l),
(395,483,o),
(345,496,o),
(291,496,cs),
(133,496,o),
(83,418,o),
(83,265,cs),
(83,140,o),
(116,35,o),
(165,-15,c),
(173,-19,o),
(197,-23,o),
(205,-23,cs),
(302,-23,o),
(388,26,o),
(443,148,c),
(450,148,l),
(467,-217,l)
);
},
{
closed = 1;
nodes = (
(441,368,o),
(441,353,cs),
(441,136,o),
(324,68,o),
(273,58,c),
(263,87,o),
(253,179,o),
(253,246,cs),
(253,327,o),
(260,386,o),
(267,422,c),
(284,431,o),
(306,436,o),
(330,436,cs),
(367,436,o),
(409,424,o),
(439,400,c),
(440,384,o)
);
}
);
width = 720;
}
);
unicode = 113;
},
{
glyphname = r;
layers = (
{
layerId = UUID0;
shapes = (
{
closed = 1;
nodes = (
(215,-6,l),
(229,107,ls),
(251,281,o),
(296,329,o),
(383,329,cs),
(401,329,o),
(420,327,o),
(442,324,c),
(470,537,l),
(388,530,o),
(317,464,o),
(266,354,c),
(259,354,l),
(279,514,l),
(65,481,l),
(116,-15,l)
);
}
);
width = 470;
}
);
unicode = 114;
},
{
glyphname = s;
layers = (
{
layerId = UUID0;
shapes = (
{
closed = 1;
nodes = (
(194,132,o),
(194,46,cs),
(194,14,o),
(177,-15,o),
(115,-49,c),
(159,-108,l),
(268,-65,o),
(339,-2,o),
(339,94,cs),
(339,169,o),
(248,224,o),
(248,304,cs),
(248,363,o),
(295,412,o),
(359,453,c),
(195,563,l),
(116,501,o),
(60,428,o),
(60,329,cs),
(60,196,o)
);
}
);
width = 419;
}
);
unicode = 115;
},
{
glyphname = scedilla;
layers = (
{
layerId = UUID0;
shapes = (
{
closed = 1;
nodes = (
(117,-201,o),
(164,-208,o),
(194,-208,cs),
(244,-208,o),
(340,-187,o),
(340,-108,cs),
(340,-69,o),
(316,-37,o),
(283,-11,c),
(320,20,o),
(339,57,o),
(339,115,cs),
(339,186,o),
(248,239,o),
(248,315,cs),
(248,372,o),
(295,419,o),
(359,458,c),
(195,563,l),
(116,504,o),
(60,435,o),
(60,340,cs),
(60,214,o),
(194,153,o),
(194,71,cs),
(194,41,o),
(185,18,o),
(157,-3,c),
(233,-39,o),
(263,-72,o),
(279,-104,c),
(257,-113,o),
(243,-117,o),
(218,-117,cs),
(181,-117,o),
(153,-108,o),
(114,-91,c),
(80,-187,l)
);
}
);
width = 419;
}
);
unicode = 351;
},
{
glyphname = germandbls;
layers = (
{
layerId = UUID0;
shapes = (
{
closed = 1;
nodes = (
(613,442,o),
(646,558,o),
(646,625,cs),
(646,642,o),
(643,659,o),
(637,677,c),
(581,712,o),
(485,725,o),
(410,725,cs),
(256,725,o),
(104,656,o),
(104,463,c),
(20,459,l),
(20,356,l),
(112,369,l),
(151,-15,l),
(250,-6,l),
(255,38,l),
(329,-7,o),
(397,-24,o),
(460,-24,cs),
(631,-24,o),
(701,40,o),
(701,164,cs),
(701,266,o),
(669,317,o),
(621,364,c),
(608,366,o),
(593,370,o),
(571,370,cs),
(558,370,o),
(543,369,o),
(524,365,c),
(522,371,l)
);
},
{
closed = 1;
nodes = (
(431,287,o),
(477,307,o),
(509,315,c),
(524,283,o),
(532,231,o),
(532,179,cs),
(532,131,o),
(526,84,o),
(512,52,c),
(435,55,o),
(348,73,o),
(265,125,c),
(299,492,ls),
(307,574,o),
(330,647,o),
(409,660,c),
(461,642,o),
(485,591,o),
(485,530,cs),
(485,449,o),
(455,348,o),
(368,287,c),
(389,261,l)
);
}
);
width = 741;
}
);
unicode = 223;
},
{
glyphname = t;
layers = (
{
layerId = UUID0;
shapes = (
{
closed = 1;
nodes = (
(250,-6,l),
(302,417,l),
(408,432,l),
(411,499,l),
(312,494,l),
(332,656,l),
(83,623,l),
(98,483,l),
(10,479,l),
(16,376,l),
(108,389,l),
(151,-15,l)
);
}
);
width = 431;
}
);
unicode = 116;
},
{
glyphname = u;
layers = (
{
layerId = UUID0;
shapes = (
{
closed = 1;
nodes = (
(247,189,o),
(247,249,cs),
(247,324,o),
(254,400,o),
(265,507,c),
(65,492,l),
(65,359,o),
(76,79,o),
(154,-15,c),
(162,-19,o),
(186,-23,o),
(194,-23,cs),
(298,-23,o),
(377,34,o),
(430,175,c),
(437,175,l),
(457,-15,l),
(556,-6,l),
(620,513,l),
(406,480,l),
(417,370,o),
(418,355,o),
(418,339,cs),
(418,225,o),
(378,84,o),
(262,58,c),
(251,131,o)
);
}
);
width = 690;
}
);
unicode = 117;
},
{
glyphname = uni0163;
layers = (
{
layerId = UUID0;
shapes = (
{
closed = 1;
nodes = (
(104,-201,o),
(151,-208,o),
(181,-208,cs),
(231,-208,o),
(327,-187,o),
(327,-108,cs),
(327,-38,o),
(247,9,o),
(185,44,c),
(151,-15,l),
(213,-37,o),
(250,-71,o),
(266,-104,c),
(244,-113,o),
(230,-117,o),
(205,-117,cs),
(168,-117,o),
(140,-108,o),
(101,-91,c),
(67,-187,l)
);
},
{
ref = t;
}
);
width = 431;
}
);
unicode = 355;
},
{
glyphname = v;
kernLeft = v;
kernRight = v;
layers = (
{
layerId = UUID0;
shapes = (
{
closed = 1;
nodes = (
(30,480,l),
(252,-15,l),
(333,-2,l),
(528,488,l),
(447,510,l),
(318,130,l),
(310,130,l),
(244,513,l)
);
}
);
width = 558;
}
);
unicode = 118;
},
{
glyphname = w;
kernLeft = v;
kernRight = v;
layers = (
{
layerId = UUID0;
shapes = (
{
closed = 1;
nodes = (
(30,480,l),
(219,-15,l),
(318,-2,l),
(412,219,l),
(558,-15,l),
(639,-2,l),
(798,482,l),
(717,504,l),
(613,119,l),
(605,119,l),
(513,455,l),
(441,477,l),
(306,122,l),
(298,122,l),
(236,511,l)
);
}
);
width = 828;
}
);
unicode = 119;
},
{
glyphname = x;
layers = (
{
layerId = UUID0;
shapes = (
{
closed = 1;
nodes = (
(121,-22,l),
(213,164,l),
(296,-22,l),
(510,0,l),
(348,256,l),
(501,488,l),
(410,510,l),
(320,329,l),
(254,510,l),
(40,480,l),
(183,232,l),
(30,0,l)
);
}
);
width = 540;
}
);
unicode = 120;
},
{
glyphname = y;
kernLeft = v;
kernRight = v;
layers = (
{
layerId = UUID0;
shapes = (
{
closed = 1;
nodes = (
(455,510,l),
(326,129,l),
(318,129,l),
(252,513,l),
(38,480,l),
(245,-23,l),
(233,-96,o),
(184,-128,o),
(125,-128,cs),
(104,-128,o),
(82,-124,o),
(60,-116,c),
(30,-167,l),
(70,-199,o),
(111,-212,o),
(150,-212,cs),
(228,-212,o),
(272,-176,o),
(319,-58,cs),
(536,488,l)
);
}
);
width = 566;
}
);
unicode = 121;
},
{
glyphname = z;
layers = (
{
layerId = UUID0;
shapes = (
{
closed = 1;
nodes = (
(79,438,l),
(273,418,l),
(48,52,l),
(45,-9,l),
(476,0,l),
(470,102,l),
(160,65,l),
(495,396,l),
(482,500,l),
(76,509,l)
);
}
);
width = 560;
}
);
unicode = 122;
},
{
glyphname = j.alt;
layers = (
{
layerId = UUID0;
shapes = (
{
closed = 1;
nodes = (
(208,-102,o),
(146,-135,o),
(68,-135,cs),
(29,-135,o),
(-12,-122,o),
(-52,-90,c),
(-22,-39,l),
(-2,-53,o),
(28,-60,o),
(45,-60,cs),
(96,-60,o),
(116,-27,o),
(116,28,cs),
(116,37,o),
(115,48,o),
(70,480,c),
(284,512,l),
(220,-5,ls)
);
}
);
width = 354;
}
);
},
{
glyphname = s.alt;
layers = (
{
layerId = UUID0;
shapes = (
{
closed = 1;
nodes = (
(194,123,o),
(194,41,cs),
(194,11,o),
(177,-17,o),
(115,-49,c),
(159,-108,l),
(268,-67,o),
(339,-7,o),
(339,85,cs),
(339,156,o),
(248,209,o),
(248,285,cs),
(248,342,o),
(295,389,o),
(359,428,c),
(195,533,l),
(116,474,o),
(60,405,o),
(60,310,cs),
(60,184,o)
);
}
);
width = 419;
}
);
},
{
glyphname = f_f;
layers = (
{
layerId = UUID0;
shapes = (
{
closed = 1;
nodes = (
(586,739,o),
(479,659,o),
(465,471,c),
(233,465,l),
(257,516,o),
(299,556,o),
(366,579,c),
(329,750,l),
(230,738,o),
(120,656,o),
(110,461,c),
(20,459,l),
(26,356,l),
(112,362,l),
(151,-15,l),
(250,-6,l),
(297,377,l),
(464,390,l),
(506,-15,l),
(605,-6,l),
(655,404,l),
(753,412,l),
(756,479,l),
(593,474,l),
(617,521,o),
(658,557,o),
(721,579,c),
(684,750,l)
);
}
);
width = 786;
}
);
unicode = 64256;
},
{
glyphname = f_f_i;
layers = (
{
layerId = UUID0;
shapes = (
{
closed = 1;
nodes = (
(976,-6,l),
(1040,513,l),
(601,489,l),
(626,528,o),
(665,560,o),
(721,579,c),
(684,750,l),
(588,739,o),
(483,662,o),
(466,482,c),
(236,470,l),
(260,519,o),
(301,556,o),
(366,579,c),
(329,750,l),
(230,738,o),
(121,657,o),
(110,464,c),
(20,459,l),
(26,356,l),
(112,364,l),
(151,-15,l),
(250,-6,l),
(297,381,l),
(463,396,l),
(506,-15,l),
(605,-6,l),
(656,413,l),
(831,429,l),
(877,-15,l)
);
},
{
closed = 1;
nodes = (
(872,564,o),
(923,564,cs),
(974,564,o),
(1016,606,o),
(1016,657,cs),
(1016,708,o),
(974,750,o),
(923,750,cs),
(872,750,o),
(830,708,o),
(830,657,cs),
(830,606,o)
);
}
);
width = 1216;
}
);
unicode = 64259;
},
{
glyphname = f_f_l;
layers = (
{
layerId = UUID0;
shapes = (
{
closed = 1;
nodes = (
(967,-6,l),
(1031,716,l),
(896,695,l),
(822,733,o),
(758,750,o),
(704,750,cs),
(552,750,o),
(477,619,o),
(466,471,c),
(233,465,l),
(257,516,o),
(299,556,o),
(366,579,c),
(329,750,l),
(230,738,o),
(120,656,o),
(110,461,c),
(20,459,l),
(26,356,l),
(112,362,l),
(151,-15,l),
(250,-6,l),
(297,377,l),
(465,390,l),
(507,-15,l),
(606,-6,l),
(656,404,l),
(753,412,l),
(756,479,l),
(593,474,l),
(632,547,o),
(698,586,o),
(773,586,cs),
(790,586,o),
(807,584,o),
(824,580,c),
(868,-15,l)
);
}
);
width = 1101;
}
);
unicode = 64260;
},
{
glyphname = f_j;
layers = (
{
layerId = UUID0;
shapes = (
{
closed = 1;
nodes = (
(239,477,l),
(264,522,o),
(304,557,o),
(366,579,c),
(329,750,l),
(231,738,o),
(122,658,o),
(110,466,c),
(20,459,l),
(26,356,l),
(111,368,l),
(151,-15,l),
(250,-6,l),
(299,394,l),
(477,420,l),
(516,48,o),
(517,38,o),
(517,28,cs),
(517,-27,o),
(497,-60,o),
(446,-60,cs),
(429,-60,o),
(399,-53,o),
(379,-39,c),
(349,-90,l),
(389,-122,o),
(430,-135,o),
(469,-135,cs),
(547,-135,o),
(609,-102,o),
(621,-5,cs),
(685,512,l)
);
},
{
closed = 1;
nodes = (
(517,564,o),
(568,564,cs),
(619,564,o),
(661,606,o),
(661,657,cs),
(661,708,o),
(619,750,o),
(568,750,cs),
(517,750,o),
(475,708,o),
(475,657,cs),
(475,606,o)
);
}
);
width = 755;
}
);
},
{
glyphname = fi;
layers = (
{
layerId = UUID0;
shapes = (
{
closed = 1;
nodes = (
(621,-6,l),
(685,513,l),
(239,477,l),
(264,522,o),
(304,557,o),
(366,579,c),
(329,750,l),
(231,738,o),
(122,658,o),
(110,466,c),
(20,459,l),
(26,356,l),
(111,368,l),
(151,-15,l),
(250,-6,l),
(299,394,l),
(477,419,l),
(522,-15,l)
);
},
{
closed = 1;
nodes = (
(517,564,o),
(568,564,cs),
(619,564,o),
(661,606,o),
(661,657,cs),
(661,708,o),
(619,750,o),
(568,750,cs),
(517,750,o),
(475,708,o),
(475,657,cs),
(475,606,o)
);
}
);
width = 755;
}
);
unicode = 64257;
},
{
glyphname = fl;
layers = (
{
layerId = UUID0;
shapes = (
{
closed = 1;
nodes = (
(611,-6,l),
(675,716,l),
(540,695,l),
(466,733,o),
(402,750,o),
(348,750,cs),
(194,750,o),
(119,615,o),
(110,463,c),
(20,459,l),
(26,356,l),
(111,369,l),
(151,-15,l),
(250,-6,l),
(299,397,l),
(398,412,l),
(401,479,l),
(234,470,l),
(274,545,o),
(340,586,o),
(417,586,cs),
(434,586,o),
(451,584,o),
(468,580,c),
(512,-15,l)
);
}
);
width = 745;
}
);
unicode = 64258;
},
{
glyphname = ordfeminine;
layers = (
{
layerId = UUID0;
shapes = (
{
closed = 1;
nodes = (
(323,396,l),
(341,570,o),
(341,577,o),
(341,583,cs),
(341,671,o),
(283,709,o),
(195,709,cs),
(150,709,o),
(104,698,o),
(77,688,c),
(105,595,l),
(130,609,o),
(154,616,o),
(173,616,cs),
(210,616,o),
(242,595,o),
(242,559,c),
(222,562,o),
(203,562,o),
(186,562,cs),
(77,562,o),
(49,536,o),
(49,487,cs),
(49,447,o),
(68,406,o),
(96,387,c),
(101,386,o),
(106,386,o),
(111,386,cs),
(169,386,o),
(218,417,o),
(245,466,c),
(251,466,l),
(259,391,l)
);
},
{
closed = 1;
nodes = (
(332,349,l),
(60,349,l),
(50,269,l),
(322,296,l)
);
},
{
closed = 1;
nodes = (
(182,463,o),
(156,458,c),
(152,464,o),
(148,481,o),
(148,494,cs),
(148,507,o),
(151,517,o),
(155,524,c),
(173,527,o),
(190,528,o),
(206,528,cs),
(219,528,o),
(237,527,o),
(244,526,c),
(227,476,o)
);
}
);
width = 408;
}
);
unicode = 170;
},
{
glyphname = ordmasculine;
layers = (
{
layerId = UUID0;
shapes = (
{
closed = 1;
nodes = (
(128,775,o),
(64,667,o),
(64,525,cs),
(64,494,o),
(67,461,o),
(74,427,c),
(101,403,o),
(145,386,o),
(209,386,cs),
(328,386,o),
(353,433,o),
(353,525,cs),
(353,668,o),
(281,778,o),
(191,815,c),
(188,814,l)
);
},
{
closed = 1;
nodes = (
(273,497,o),
(265,462,c),
(240,453,o),
(207,449,o),
(175,449,cs),
(161,449,o),
(144,449,o),
(130,452,c),
(131,538,o),
(174,633,o),
(247,704,c),
(266,663,o),
(276,611,o),
(276,552,cs),
(276,522,o)
);
},
{
closed = 1;
nodes = (
(342,349,l),
(70,349,l),
(60,269,l),
(332,296,l)
);
}
);
width = 413;
}
);
unicode = 186;
},
{
glyphname = uni0394;
layers = (
{
layerId = UUID0;
shapes = (
{
closed = 1;
nodes = (
(609,0,l),
(399,650,l),
(257,665,l),
(50,0,l)
);
},
{
closed = 1;
nodes = (
(497,54,l),
(151,77,l),
(289,584,l)
);
}
);
width = 659;
}
);
unicode = 916;
},
{
glyphname = Delta;
layers = (
{
layerId = UUID0;
shapes = (
{
closed = 1;
nodes = (
(609,0,l),
(399,650,l),
(257,665,l),
(50,0,l)
);
},
{
closed = 1;
nodes = (
(497,54,l),
(151,77,l),
(289,584,l)
);
}
);
width = 659;
}
);
unicode = 8710;
},
{
glyphname = uni03A9;
layers = (
{
layerId = UUID0;
shapes = (
{
closed = 1;
nodes = (
(152,193,o),
(263,101,c),
(74,74,l),
(71,0,l),
(298,0,l),
(347,113,l),
(284,179,o),
(252,308,o),
(252,394,cs),
(252,484,o),
(289,583,o),
(394,583,cs),
(498,583,o),
(536,484,o),
(536,394,cs),
(536,308,o),
(504,179,o),
(441,113,c),
(490,0,l),
(717,0,l),
(714,74,l),
(524,101,l),
(635,193,o),
(718,340,o),
(718,454,cs),
(718,630,o),
(589,658,o),
(393,658,cs),
(198,658,o),
(70,629,o),
(70,454,cs),
(70,340,o)
);
}
);
width = 788;
}
);
unicode = 937;
},
{
glyphname = Omega;
layers = (
{
layerId = UUID0;
shapes = (
{
closed = 1;
nodes = (
(152,193,o),
(263,101,c),
(74,74,l),
(71,0,l),
(298,0,l),
(347,113,l),
(284,179,o),
(252,308,o),
(252,394,cs),
(252,484,o),
(289,583,o),
(394,583,cs),
(498,583,o),
(536,484,o),
(536,394,cs),
(536,308,o),
(504,179,o),
(441,113,c),
(490,0,l),
(717,0,l),
(714,74,l),
(524,101,l),
(635,193,o),
(718,340,o),
(718,454,cs),
(718,630,o),
(589,658,o),
(393,658,cs),
(198,658,o),
(70,629,o),
(70,454,cs),
(70,340,o)
);
}
);
width = 788;
}
);
unicode = 8486;
},
{
glyphname = mu;
layers = (
{
layerId = UUID0;
shapes = (
{
closed = 1;
nodes = (
(65,492,l),
(65,271,o),
(103,12,o),
(164,-229,c),
(252,-209,l),
(252,-16,l),
(327,3,o),
(388,62,o),
(430,175,c),
(437,175,l),
(457,-15,l),
(556,-6,l),
(620,513,l),
(406,480,l),
(413,437,o),
(416,396,o),
(416,357,cs),
(416,191,o),
(358,77,o),
(252,53,c),
(252,507,l)
);
}
);
width = 690;
}
);
unicode = 181;
},
{
glyphname = uni03BC;
layers = (
{
layerId = UUID0;
shapes = (
{
closed = 1;
nodes = (
(65,492,l),
(65,271,o),
(103,12,o),
(164,-229,c),
(252,-209,l),
(252,-16,l),
(331,4,o),
(393,67,o),
(436,190,c),
(457,-15,l),
(556,-6,l),
(620,513,l),
(406,480,l),
(413,437,o),
(416,396,o),
(416,357,cs),
(416,191,o),
(358,77,o),
(252,53,c),
(252,507,l)
);
}
);
width = 690;
}
);
unicode = 956;
},
{
glyphname = pi;
layers = (
{
layerId = UUID0;
shapes = (
{
closed = 1;
nodes = (
(697,500,l),
(46,500,l),
(30,368,l),
(109,373,l),
(151,-15,l),
(250,-6,l),
(300,386,l),
(415,394,l),
(447,86,ls),
(455,12,o),
(505,-24,o),
(578,-24,cs),
(626,-24,o),
(677,-15,o),
(712,5,c),
(685,71,l),
(666,63,o),
(647,58,o),
(630,58,cs),
(596,58,o),
(572,76,o),
(572,120,cs),
(572,123,o),
(573,127,o),
(573,131,cs),
(607,407,l),
(681,412,l)
);
}
);
width = 742;
}
);
unicode = 960;
},
{
glyphname = zero;
layers = (
{
layerId = UUID0;
shapes = (
{
closed = 1;
nodes = (
(564,160,o),
(564,316,cs),
(564,399,o),
(550,496,o),
(506,603,c),
(457,648,o),
(390,665,o),
(317,665,cs),
(278,665,o),
(238,658,o),
(184,641,c),
(137,591,o),
(81,482,o),
(81,326,cs),
(81,243,o),
(95,146,o),
(139,39,c),
(188,-6,o),
(255,-23,o),
(328,-23,cs),
(367,-23,o),
(407,-16,o),
(461,1,c),
(508,51,o)
);
},
{
closed = 1;
nodes = (
(209,129,o),
(209,158,cs),
(209,298,o),
(262,464,o),
(359,573,c),
(387,573,o),
(408,571,o),
(429,566,c),
(434,541,o),
(436,513,o),
(436,484,cs),
(436,344,o),
(383,177,o),
(286,69,c),
(258,69,o),
(237,71,o),
(216,76,c),
(211,101,o)
);
}
);
width = 644;
}
);
unicode = 48;
},
{
glyphname = one;
layers = (
{
layerId = UUID0;
shapes = (
{
closed = 1;
nodes = (
(0,492,l),
(52,384,l),
(167,466,l),
(204,-14,l),
(314,-4,l),
(383,650,l),
(347,667,l)
);
}
);
width = 473;
}
);
unicode = 49;
},
{
glyphname = two;
layers = (
{
layerId = UUID0;
shapes = (
{
closed = 1;
nodes = (
(242,600,l),
(278,578,o),
(295,535,o),
(295,483,cs),
(295,344,o),
(182,137,o),
(33,67,c),
(40,0,l),
(499,0,l),
(499,113,l),
(185,82,l),
(185,91,l),
(352,193,o),
(492,376,o),
(492,537,cs),
(492,564,o),
(488,591,o),
(480,617,c),
(424,652,o),
(350,665,o),
(275,665,cs),
(159,665,o),
(100,640,o),
(38,605,c),
(90,497,l)
);
}
);
width = 579;
}
);
unicode = 50;
},
{
glyphname = three;
layers = (
{
layerId = UUID0;
shapes = (
{
closed = 1;
nodes = (
(269,280,o),
(313,296,o),
(345,304,c),
(357,283,o),
(360,217,o),
(360,169,cs),
(360,111,o),
(352,78,o),
(345,52,c),
(267,55,o),
(179,74,o),
(95,128,c),
(47,38,l),
(128,-6,o),
(218,-24,o),
(293,-24,cs),
(464,-24,o),
(534,40,o),
(534,164,cs),
(534,266,o),
(501,320,o),
(453,367,c),
(432,373,o),
(411,375,o),
(390,375,c),
(454,435,o),
(489,501,o),
(489,565,cs),
(489,582,o),
(486,599,o),
(480,617,c),
(424,652,o),
(350,665,o),
(275,665,cs),
(159,665,o),
(110,640,o),
(48,605,c),
(100,497,l),
(242,600,l),
(282,576,o),
(303,536,o),
(303,489,cs),
(303,438,o),
(279,361,o),
(215,300,cs),
(201,287,l),
(227,254,l)
);
}
);
width = 574;
}
);
unicode = 51;
},
{
glyphname = four;
layers = (
{
layerId = UUID0;
shapes = (
{
closed = 1;
nodes = (
(179,629,o),
(74,475,o),
(74,291,cs),
(74,250,o),
(78,207,o),
(91,152,c),
(135,117,o),
(228,91,o),
(336,91,cs),
(350,91,o),
(364,91,o),
(379,92,c),
(387,-15,l),
(498,-4,l),
(536,352,l),
(362,340,l),
(372,188,l),
(338,183,o),
(305,181,o),
(272,181,cs),
(238,181,o),
(206,183,o),
(175,187,c),
(175,330,o),
(310,481,o),
(463,558,c),
(280,680,l)
);
}
);
width = 576;
}
);
unicode = 52;
},
{
glyphname = five;
layers = (
{
layerId = UUID0;
shapes = (
{
closed = 1;
nodes = (
(55,618,l),
(117,264,l),
(197,254,l),
(239,280,o),
(283,296,o),
(345,304,c),
(357,283,o),
(360,217,o),
(360,169,cs),
(360,111,o),
(352,78,o),
(345,52,c),
(267,55,o),
(179,74,o),
(95,128,c),
(47,38,l),
(128,-6,o),
(218,-24,o),
(293,-24,cs),
(464,-24,o),
(534,40,o),
(534,164,cs),
(534,266,o),
(501,320,o),
(453,367,c),
(434,373,o),
(415,375,o),
(395,375,cs),
(331,375,o),
(263,351,o),
(211,318,c),
(265,556,l),
(472,538,l),
(490,656,l),
(70,640,l)
);
}
);
width = 574;
}
);
unicode = 53;
},
{
glyphname = six;
layers = (
{
layerId = UUID0;
shapes = (
{
closed = 1;
nodes = (
(294,290,o),
(335,304,c),
(347,283,o),
(350,217,o),
(350,169,cs),
(350,111,o),
(342,78,o),
(335,52,c),
(318,48,o),
(300,45,o),
(282,45,cs),
(256,45,o),
(230,51,o),
(199,66,c),
(229,247,o)
);
},
{
closed = 1;
nodes = (
(233,367,o),
(330,473,o),
(463,558,c),
(280,680,l),
(180,614,o),
(62,444,o),
(62,207,cs),
(62,155,o),
(67,100,o),
(79,41,c),
(124,4,o),
(209,-24,o),
(303,-24,cs),
(474,-24,o),
(524,40,o),
(524,164,cs),
(524,266,o),
(491,320,o),
(443,367,c),
(423,374,o),
(402,377,o),
(383,377,cs),
(308,377,o),
(242,326,o),
(201,228,c),
(189,235,l)
);
}
);
width = 574;
}
);
unicode = 54;
},
{
glyphname = seven;
layers = (
{
layerId = UUID0;
shapes = (
{
closed = 1;
nodes = (
(33,538,l),
(219,554,l),
(181,-14,l),
(291,-4,l),
(460,618,l),
(445,640,l),
(15,656,l)
);
}
);
width = 510;
}
);
unicode = 55;
},
{
glyphname = eight;
layers = (
{
layerId = UUID0;
shapes = (
{
closed = 1;
nodes = (
(69,70,o),
(115,11,c),
(167,-9,o),
(238,-24,o),
(314,-24,cs),
(427,-24,o),
(562,5,o),
(562,165,cs),
(562,211,o),
(548,265,o),
(502,324,c),
(464,337,l),
(504,366,o),
(545,416,o),
(545,486,cs),
(545,528,o),
(531,578,o),
(489,633,c),
(440,651,o),
(375,665,o),
(303,665,cs),
(198,665,o),
(72,638,o),
(72,490,cs),
(72,448,o),
(86,398,o),
(128,343,c),
(134,340,o),
(141,338,o),
(148,336,c),
(102,305,o),
(55,248,o),
(55,170,cs),
(55,124,o)
);
},
{
closed = 1;
nodes = (
(388,222,o),
(388,181,cs),
(388,128,o),
(368,77,o),
(322,40,c),
(303,40,o),
(263,47,o),
(237,66,c),
(226,90,o),
(221,120,o),
(221,148,cs),
(221,208,o),
(242,270,o),
(291,309,c),
(311,309,o),
(329,308,o),
(348,305,c),
(374,274,o)
);
},
{
closed = 1;
nodes = (
(224,439,o),
(224,475,cs),
(224,522,o),
(246,567,o),
(294,600,c),
(314,600,o),
(356,594,o),
(384,577,c),
(394,556,o),
(400,529,o),
(400,504,cs),
(400,451,o),
(377,396,o),
(327,361,c),
(306,361,o),
(287,362,o),
(267,365,c),
(239,392,o)
);
}
);
width = 617;
}
);
unicode = 56;
},
{
glyphname = nine;
layers = (
{
layerId = UUID0;
shapes = (
{
closed = 1;
nodes = (
(390,539,o),
(390,523,cs),
(390,363,o),
(285,343,o),
(251,337,c),
(239,358,o),
(236,424,o),
(236,472,cs),
(236,530,o),
(244,563,o),
(251,589,c),
(268,593,o),
(286,596,o),
(304,596,cs),
(330,596,o),
(356,590,o),
(387,575,c),
(389,556,o)
);
},
{
closed = 1;
nodes = (
(307,221,o),
(221,116,o),
(123,53,c),
(293,-62,l),
(393,4,o),
(524,197,o),
(524,434,cs),
(524,486,o),
(519,541,o),
(507,600,c),
(462,637,o),
(377,665,o),
(283,665,cs),
(112,665,o),
(62,601,o),
(62,477,cs),
(62,375,o),
(95,321,o),
(143,274,c),
(165,268,o),
(185,264,o),
(205,264,cs),
(256,264,o),
(312,287,o),
(353,323,c),
(360,319,l)
);
}
);
width = 574;
}
);
unicode = 57;
},
{
glyphname = fraction;
layers = (
{
layerId = UUID0;
shapes = (
{
closed = 1;
nodes = (
(140,-81,l),
(406,718,l),
(314,739,l),
(90,-68,l)
);
}
);
width = 496;
}
);
unicode = 8260;
},
{
glyphname = zeroinferior;
layers = (
{
layerId = UUID0;
shapes = (
{
closed = 1;
nodes = (
(366,-102,o),
(366,-8,cs),
(366,42,o),
(358,99,o),
(331,164,c),
(300,187,o),
(258,204,o),
(214,204,cs),
(191,204,o),
(166,200,o),
(134,190,c),
(104,158,o),
(70,91,o),
(70,-2,cs),
(70,-53,o),
(78,-111,o),
(103,-174,c),
(135,-197,o),
(177,-214,o),
(221,-214,cs),
(245,-214,o),
(269,-210,o),
(304,-197,c),
(332,-167,o)
);
},
{
closed = 1;
nodes = (
(185,80,o),
(244,148,c),
(257,148,o),
(267,147,o),
(279,145,c),
(282,130,o),
(283,114,o),
(283,98,cs),
(283,11,o),
(252,-91,o),
(193,-158,c),
(180,-158,o),
(168,-157,o),
(156,-154,c),
(153,-139,o),
(152,-125,o),
(152,-108,cs),
(152,-22,o)
);
}
);
width = 436;
}
);
unicode = 8320;
},
{
glyphname = oneinferior;
layers = (
{
layerId = UUID0;
shapes = (
{
closed = 1;
nodes = (
(23,98,l),
(60,23,l),
(78,37,o),
(109,58,o),
(128,72,c),
(145,-209,l),
(222,-202,l),
(264,193,l),
(234,205,l)
);
}
);
width = 344;
}
);
unicode = 8321;
},
{
glyphname = twoinferior;
layers = (
{
layerId = UUID0;
shapes = (
{
closed = 1;
nodes = (
(123,108,o),
(157,133,o),
(186,152,c),
(203,142,o),
(209,122,o),
(209,97,cs),
(209,15,o),
(145,-110,o),
(55,-152,c),
(59,-200,l),
(342,-200,l),
(342,-120,l),
(286,-124,o),
(233,-131,o),
(177,-137,c),
(177,-130,l),
(269,-66,o),
(339,35,o),
(339,126,cs),
(339,142,o),
(337,157,o),
(331,172,c),
(294,195,o),
(249,204,o),
(205,204,cs),
(136,204,o),
(98,187,o),
(58,164,c),
(94,90,l)
);
}
);
width = 407;
}
);
unicode = 8322;
},
{
glyphname = threeinferior;
layers = (
{
layerId = UUID0;
shapes = (
{
closed = 1;
nodes = (
(188,-37,o),
(213,-27,o),
(232,-22,c),
(237,-36,o),
(240,-69,o),
(240,-95,cs),
(240,-124,o),
(235,-143,o),
(231,-158,c),
(186,-155,o),
(135,-143,o),
(86,-111,c),
(51,-173,l),
(104,-203,o),
(159,-214,o),
(204,-214,cs),
(308,-214,o),
(352,-174,o),
(352,-98,cs),
(352,-35,o),
(332,-2,o),
(301,28,c),
(292,31,o),
(285,33,o),
(275,33,c),
(307,67,o),
(325,103,o),
(325,139,cs),
(325,149,o),
(324,159,o),
(319,172,c),
(282,195,o),
(238,204,o),
(194,204,cs),
(124,204,o),
(92,187,o),
(52,164,c),
(89,90,l),
(115,108,o),
(148,133,o),
(175,152,c),
(196,140,o),
(204,119,o),
(204,94,cs),
(204,65,o),
(188,24,o),
(154,-13,cs),
(143,-25,l),
(163,-53,l)
);
}
);
width = 404;
}
);
unicode = 8323;
},
{
glyphname = fourinferior;
layers = (
{
layerId = UUID0;
shapes = (
{
closed = 1;
nodes = (
(134,182,o),
(69,89,o),
(69,-22,cs),
(69,-47,o),
(72,-73,o),
(81,-109,c),
(107,-130,o),
(164,-146,o),
(249,-146,c),
(254,-210,l),
(331,-202,l),
(355,19,l),
(239,12,l),
(244,-78,l),
(227,-80,o),
(207,-81,o),
(192,-81,cs),
(175,-81,o),
(157,-81,o),
(141,-79,c),
(143,1,o),
(224,89,o),
(316,134,c),
(197,213,l)
);
}
);
width = 406;
}
);
unicode = 8324;
},
{
glyphname = fiveinferior;
layers = (
{
layerId = UUID0;
shapes = (
{
closed = 1;
nodes = (
(57,172,l),
(95,-44,l),
(148,-51,l),
(172,-36,o),
(197,-25,o),
(231,-21,c),
(236,-35,o),
(238,-69,o),
(238,-95,cs),
(238,-124,o),
(235,-143,o),
(231,-158,c),
(186,-155,o),
(135,-143,o),
(86,-111,c),
(51,-173,l),
(104,-203,o),
(159,-214,o),
(204,-214,cs),
(308,-214,o),
(352,-174,o),
(352,-98,cs),
(352,-35,o),
(332,-2,o),
(301,28,c),
(289,32,o),
(277,33,o),
(264,33,cs),
(230,33,o),
(195,24,o),
(165,6,c),
(193,128,l),
(314,117,l),
(327,199,l),
(69,189,l)
);
}
);
width = 404;
}
);
unicode = 8325;
},
{
glyphname = sixinferior;
layers = (
{
layerId = UUID0;
shapes = (
{
closed = 1;
nodes = (
(144,183,o),
(62,69,o),
(62,-72,cs),
(62,-102,o),
(65,-135,o),
(73,-173,c),
(100,-197,o),
(152,-214,o),
(210,-214,cs),
(315,-214,o),
(346,-174,o),
(346,-98,cs),
(346,-35,o),
(326,-2,o),
(295,28,c),
(283,32,o),
(269,34,o),
(257,34,cs),
(229,34,o),
(200,19,o),
(177,-5,c),
(172,-2,l),
(204,54,o),
(244,109,o),
(304,154,c),
(197,225,l)
);
},
{
closed = 1;
nodes = (
(232,-69,o),
(232,-95,cs),
(232,-124,o),
(228,-144,o),
(224,-159,c),
(215,-161,o),
(206,-162,o),
(198,-162,cs),
(185,-162,o),
(171,-159,o),
(154,-152,c),
(171,-65,o),
(203,-34,o),
(226,-23,c),
(231,-37,o)
);
}
);
width = 404;
}
);
unicode = 8326;
},
{
glyphname = seveninferior;
layers = (
{
layerId = UUID0;
shapes = (
{
closed = 1;
nodes = (
(46,117,l),
(154,125,l),
(132,-209,l),
(208,-202,l),
(309,171,l),
(297,189,l),
(33,199,l)
);
}
);
width = 366;
}
);
unicode = 8327;
},
{
glyphname = eightinferior;
layers = (
{
layerId = UUID0;
shapes = (
{
closed = 1;
nodes = (
(69,-156,o),
(97,-192,c),
(130,-205,o),
(171,-214,o),
(216,-214,cs),
(285,-214,o),
(366,-196,o),
(366,-97,cs),
(366,-68,o),
(358,-35,o),
(329,1,c),
(316,6,l),
(338,25,o),
(359,55,o),
(359,93,cs),
(359,118,o),
(351,150,o),
(323,184,c),
(293,196,o),
(254,204,o),
(210,204,cs),
(146,204,o),
(68,187,o),
(68,95,cs),
(68,68,o),
(77,36,o),
(101,6,c),
(116,-1,l),
(91,-19,o),
(61,-57,o),
(61,-94,cs),
(61,-122,o)
);
},
{
closed = 1;
nodes = (
(244,-144,o),
(218,-165,c),
(208,-164,o),
(189,-160,o),
(176,-151,c),
(171,-138,o),
(168,-121,o),
(168,-107,cs),
(168,-74,o),
(180,-40,o),
(206,-18,c),
(215,-18,o),
(223,-18,o),
(233,-20,c),
(246,-38,o),
(255,-66,o),
(255,-87,cs),
(255,-116,o)
);
},
{
closed = 1;
nodes = (
(182,135,o),
(206,153,c),
(217,152,o),
(240,148,o),
(254,142,c),
(258,131,o),
(261,115,o),
(261,102,cs),
(261,75,o),
(249,44,o),
(222,25,c),
(211,25,o),
(199,26,o),
(191,28,c),
(176,44,o),
(169,66,o),
(169,86,cs),
(169,110,o)
);
}
);
width = 430;
}
);
unicode = 8328;
},
{
glyphname = nineinferior;
layers = (
{
layerId = UUID0;
shapes = (
{
closed = 1;
nodes = (
(192,-81,o),
(145,-129,o),
(97,-166,c),
(204,-237,l),
(266,-197,o),
(346,-80,o),
(346,61,cs),
(346,92,o),
(343,125,o),
(335,163,c),
(307,186,o),
(255,204,o),
(199,204,cs),
(92,204,o),
(62,164,o),
(62,87,cs),
(62,25,o),
(84,-9,o),
(114,-39,c),
(127,-42,o),
(139,-43,o),
(150,-43,cs),
(178,-43,o),
(201,-35,o),
(224,-18,c),
(228,-21,l)
);
},
{
closed = 1;
nodes = (
(203,15,o),
(183,10,c),
(178,25,o),
(177,58,o),
(177,84,cs),
(177,115,o),
(180,133,o),
(185,148,c),
(193,150,o),
(202,152,o),
(210,152,cs),
(224,152,o),
(238,148,o),
(253,141,c),
(254,131,o),
(255,121,o),
(255,114,cs),
(255,29,o)
);
}
);
width = 404;
}
);
unicode = 8329;
},
{
glyphname = asterisk;
layers = (
{
layerId = UUID0;
shapes = (
{
closed = 1;
nodes = (
(221,687,l),
(247,541,l),
(126,637,l),
(74,528,l),
(213,478,l),
(70,420,l),
(138,321,l),
(250,416,l),
(230,263,l),
(350,273,l),
(323,417,l),
(445,323,l),
(497,432,l),
(357,481,l),
(501,540,l),
(433,639,l),
(320,543,l),
(341,697,l)
);
}
);
width = 571;
}
);
unicode = 42;
},
{
glyphname = backslash;
layers = (
{
layerId = UUID0;
shapes = (
{
closed = 1;
nodes = (
(346,-91,l),
(80,708,l),
(192,739,l),
(416,-68,l)
);
}
);
width = 496;
}
);
unicode = 92;
},
{
glyphname = comma;
layers = (
{
layerId = UUID0;
shapes = (
{
closed = 1;
nodes = (
(135,-54,o),
(115,-88,o),
(73,-123,c),
(148,-183,l),
(212,-125,o),
(236,-32,o),
(236,55,cs),
(236,85,o),
(234,113,o),
(229,139,c),
(211,157,o),
(177,171,o),
(138,171,cs),
(69,171,o),
(50,139,o),
(50,78,cs),
(50,21,o),
(71,-15,o),
(105,-15,cs),
(121,-15,o),
(131,-11,o),
(140,-4,c),
(144,-6,l)
);
}
);
width = 286;
}
);
unicode = 44;
},
{
glyphname = ellipsis;
layers = (
{
layerId = UUID0;
shapes = (
{
closed = 1;
nodes = (
(75,-10,o),
(143,-10,cs),
(211,-10,o),
(236,30,o),
(236,78,cs),
(236,126,o),
(211,166,o),
(143,166,cs),
(75,166,o),
(50,126,o),
(50,78,cs),
(50,30,o)
);
},
{
closed = 1;
nodes = (
(361,-10,o),
(429,-10,cs),
(497,-10,o),
(522,30,o),
(522,78,cs),
(522,126,o),
(497,166,o),
(429,166,cs),
(361,166,o),
(336,126,o),
(336,78,cs),
(336,30,o)
);
},
{
closed = 1;
nodes = (
(647,-10,o),
(715,-10,cs),
(783,-10,o),
(808,30,o),
(808,78,cs),
(808,126,o),
(783,166,o),
(715,166,cs),
(647,166,o),
(622,126,o),
(622,78,cs),
(622,30,o)
);
}
);
width = 858;
}
);
unicode = 8230;
},
{
glyphname = exclam;
layers = (
{
layerId = UUID0;
shapes = (
{
closed = 1;
nodes = (
(142,-15,o),
(193,-15,cs),
(244,-15,o),
(286,27,o),
(286,78,cs),
(286,129,o),
(244,171,o),
(193,171,cs),
(142,171,o),
(100,129,o),
(100,78,cs),
(100,27,o)
);
},
{
closed = 1;
nodes = (
(115,651,l),
(146,226,l),
(235,235,l),
(323,643,l),
(296,683,l)
);
}
);
width = 383;
}
);
unicode = 33;
},
{
glyphname = exclamdown;
layers = (
{
layerId = UUID0;
shapes = (
{
closed = 1;
nodes = (
(281,512,o),
(230,512,cs),
(179,512,o),
(137,470,o),
(137,419,cs),
(137,368,o),
(179,326,o),
(230,326,cs),
(281,326,o),
(323,368,o),
(323,419,cs),
(323,470,o)
);
},
{
closed = 1;
nodes = (
(308,-154,l),
(277,271,l),
(188,262,l),
(100,-146,l),
(127,-186,l)
);
}
);
width = 383;
}
);
unicode = 161;
},
{
glyphname = numbersign;
layers = (
{
layerId = UUID0;
shapes = (
{
closed = 1;
nodes = (
(461,-91,l),
(534,129,l),
(699,129,l),
(714,239,l),
(568,233,l),
(628,412,l),
(729,416,l),
(744,499,l),
(657,499,l),
(727,708,l),
(615,739,l),
(548,499,l),
(357,499,l),
(427,708,l),
(315,739,l),
(248,499,l),
(94,499,l),
(80,389,l),
(219,395,l),
(170,216,l),
(64,212,l),
(50,129,l),
(145,129,l),
(91,-68,l),
(161,-91,l),
(234,129,l),
(445,129,l),
(391,-68,l)
);
},
{
closed = 1;
nodes = (
(523,407,l),
(473,229,l),
(264,220,l),
(324,399,l)
);
}
);
width = 794;
}
);
unicode = 35;
},
{
glyphname = period;
layers = (
{
layerId = UUID0;
shapes = (
{
closed = 1;
nodes = (
(75,-10,o),
(143,-10,cs),
(211,-10,o),
(236,30,o),
(236,78,cs),
(236,126,o),
(211,166,o),
(143,166,cs),
(75,166,o),
(50,126,o),
(50,78,cs),
(50,30,o)
);
}
);
width = 286;
}
);
unicode = 46;
},
{
glyphname = question;
layers = (
{
layerId = UUID0;
shapes = (
{
closed = 1;
nodes = (
(142,-15,o),
(193,-15,cs),
(244,-15,o),
(286,27,o),
(286,78,cs),
(286,129,o),
(244,171,o),
(193,171,cs),
(142,171,o),
(100,129,o),
(100,78,cs),
(100,27,o)
);
},
{
closed = 1;
nodes = (
(239,373,o),
(131,300,c),
(188,230,l),
(269,270,o),
(387,378,o),
(387,524,cs),
(387,557,o),
(384,591,o),
(373,635,c),
(339,662,o),
(265,683,o),
(179,683,cs),
(136,683,o),
(88,678,o),
(42,664,c),
(77,491,l),
(125,513,o),
(182,525,o),
(258,525,c),
(258,453,o)
);
}
);
width = 407;
}
);
unicode = 63;
},
{
glyphname = quotedbl;
layers = (
{
layerId = UUID0;
shapes = (
{
closed = 1;
nodes = (
(154,462,l),
(182,738,l),
(40,726,l),
(78,459,l)
);
},
{
closed = 1;
nodes = (
(384,462,l),
(412,738,l),
(270,726,l),
(308,459,l)
);
}
);
width = 452;
}
);
unicode = 34;
},
{
glyphname = quotesingle;
layers = (
{
layerId = UUID0;
shapes = (
{
closed = 1;
nodes = (
(154,462,l),
(182,738,l),
(40,726,l),
(78,459,l)
);
}
);
width = 222;
}
);
unicode = 39;
},
{
glyphname = slash;
layers = (
{
layerId = UUID0;
shapes = (
{
closed = 1;
nodes = (
(150,-91,l),
(416,708,l),
(304,739,l),
(80,-68,l)
);
}
);
width = 496;
}
);
unicode = 47;
},
{
glyphname = underscore;
layers = (
{
layerId = UUID0;
shapes = (
{
closed = 1;
nodes = (
(535,-15,l),
(54,-15,l),
(40,-125,l),
(521,-98,l)
);
}
);
width = 575;
}
);
unicode = 95;
},
{
glyphname = braceleft;
layers = (
{
layerId = UUID0;
shapes = (
{
closed = 1;
nodes = (
(218,330,o),
(240,361,o),
(243,393,cs),
(260,580,ls),
(264,625,o),
(315,657,o),
(396,657,c),
(396,718,l),
(218,718,o),
(109,704,o),
(109,548,cs),
(109,538,o),
(109,528,o),
(122,351,c),
(53,323,l),
(58,275,l),
(127,263,l),
(143,34,ls),
(149,-49,o),
(164,-90,o),
(227,-90,cs),
(262,-90,o),
(313,-80,o),
(386,-54,c),
(377,1,l),
(337,-6,o),
(313,-10,o),
(290,-10,cs),
(228,-10,o),
(216,14,o),
(216,49,cs),
(216,85,o),
(230,208,o),
(230,247,cs),
(230,272,o),
(215,294,o),
(170,308,c),
(172,316,l)
);
}
);
width = 426;
}
);
unicode = 123;
},
{
glyphname = braceright;
layers = (
{
layerId = UUID0;
shapes = (
{
closed = 1;
nodes = (
(211,294,o),
(196,272,o),
(196,247,cs),
(196,208,o),
(210,85,o),
(210,49,cs),
(210,14,o),
(198,-10,o),
(136,-10,cs),
(113,-10,o),
(89,-6,o),
(49,1,c),
(40,-54,l),
(113,-80,o),
(164,-90,o),
(199,-90,cs),
(262,-90,o),
(277,-49,o),
(283,34,cs),
(299,263,l),
(368,275,l),
(373,323,l),
(304,351,l),
(317,528,o),
(317,538,o),
(317,548,cs),
(317,704,o),
(208,718,o),
(30,718,c),
(30,657,l),
(111,657,o),
(162,625,o),
(166,580,cs),
(183,393,ls),
(186,361,o),
(208,330,o),
(254,316,c),
(256,308,l)
);
}
);
width = 426;
}
);
unicode = 125;
},
{
glyphname = bracketleft;
layers = (
{
layerId = UUID0;
shapes = (
{
closed = 1;
nodes = (
(376,-4,l),
(211,16,l),
(263,620,l),
(396,620,l),
(396,718,l),
(100,674,l),
(152,-105,l),
(386,-54,l)
);
}
);
width = 426;
}
);
unicode = 91;
},
{
glyphname = bracketright;
layers = (
{
layerId = UUID0;
shapes = (
{
closed = 1;
nodes = (
(326,674,l),
(30,718,l),
(30,620,l),
(163,620,l),
(215,16,l),
(50,-4,l),
(40,-54,l),
(274,-105,l)
);
}
);
width = 426;
}
);
unicode = 93;
},
{
glyphname = parenleft;
layers = (
{
layerId = UUID0;
shapes = (
{
closed = 1;
nodes = (
(215,52,o),
(185,170,o),
(185,275,cs),
(185,459,o),
(277,602,o),
(370,707,c),
(203,738,l),
(117,607,o),
(80,474,o),
(80,346,cs),
(80,186,o),
(138,33,o),
(230,-98,c),
(290,-80,l)
);
}
);
width = 400;
}
);
unicode = 40;
},
{
glyphname = parenright;
layers = (
{
layerId = UUID0;
shapes = (
{
closed = 1;
nodes = (
(262,33,o),
(320,186,o),
(320,346,cs),
(320,474,o),
(283,607,o),
(197,738,c),
(30,707,l),
(123,602,o),
(215,459,o),
(215,275,cs),
(215,170,o),
(185,52,o),
(110,-80,c),
(169,-98,l)
);
}
);
width = 400;
}
);
unicode = 41;
},
{
glyphname = emdash;
layers = (
{
layerId = UUID0;
shapes = (
{
closed = 1;
nodes = (
(858,353,l),
(12,353,l),
(0,257,l),
(846,289,l)
);
}
);
width = 858;
}
);
unicode = 8212;
},
{
glyphname = endash;
layers = (
{
layerId = UUID0;
shapes = (
{
closed = 1;
nodes = (
(558,353,l),
(12,353,l),
(0,257,l),
(546,289,l)
);
}
);
width = 558;
}
);
unicode = 8211;
},
{
glyphname = hyphen;
layers = (
{
layerId = UUID0;
shapes = (
{
closed = 1;
nodes = (
(375,367,l),
(75,367,l),
(70,227,l),
(375,274,l)
);
}
);
width = 445;
}
);
unicode = 45;
},
{
glyphname = guillemotleft;
layers = (
{
layerId = UUID0;
shapes = (
{
closed = 1;
nodes = (
(77,196,l),
(263,21,l),
(348,66,l),
(218,243,l),
(323,421,l),
(232,466,l),
(70,271,l)
);
},
{
closed = 1;
nodes = (
(623,421,l),
(532,466,l),
(370,271,l),
(377,196,l),
(563,21,l),
(648,66,l),
(517,244,l)
);
}
);
width = 718;
}
);
unicode = 171;
},
{
glyphname = guillemotright;
layers = (
{
layerId = UUID0;
shapes = (
{
closed = 1;
nodes = (
(641,291,l),
(455,466,l),
(370,421,l),
(500,244,l),
(395,66,l),
(486,21,l),
(648,216,l)
);
},
{
closed = 1;
nodes = (
(95,66,l),
(186,21,l),
(348,216,l),
(341,291,l),
(155,466,l),
(70,421,l),
(201,243,l)
);
}
);
width = 718;
}
);
unicode = 187;
},
{
glyphname = guilsinglleft;
layers = (
{
layerId = UUID0;
shapes = (
{
closed = 1;
nodes = (
(77,196,l),
(263,21,l),
(348,66,l),
(218,243,l),
(323,421,l),
(232,466,l),
(70,271,l)
);
}
);
width = 418;
}
);
unicode = 8249;
},
{
glyphname = guilsinglright;
layers = (
{
layerId = UUID0;
shapes = (
{
closed = 1;
nodes = (
(341,291,l),
(155,466,l),
(70,421,l),
(200,244,l),
(95,66,l),
(186,21,l),
(348,216,l)
);
}
);
width = 418;
}
);
unicode = 8250;
},
{
glyphname = Euro;
layers = (
{
layerId = UUID0;
shapes = (
{
closed = 1;
nodes = (
(382,249,l),
(201,249,l),
(211,278,o),
(224,307,o),
(240,335,c),
(392,346,l),
(402,399,l),
(283,399,l),
(336,467,o),
(408,529,o),
(501,578,c),
(308,700,l),
(237,653,o),
(147,543,o),
(100,399,c),
(30,399,l),
(20,319,l),
(81,323,l),
(76,299,o),
(73,274,o),
(71,249,c),
(10,249,l),
(0,169,l),
(71,174,l),
(77,25,o),
(130,-24,o),
(330,-24,cs),
(385,-24,o),
(444,-17,o),
(502,1,c),
(468,109,l),
(399,83,o),
(332,73,o),
(267,73,cs),
(234,73,o),
(202,75,o),
(171,80,c),
(171,113,o),
(174,148,o),
(181,182,c),
(372,196,l)
);
}
);
width = 502;
}
);
unicode = 8364;
},
{
glyphname = cent;
layers = (
{
layerId = UUID0;
shapes = (
{
closed = 1;
nodes = (
(290,-112,l),
(275,56,l),
(333,56,o),
(386,62,o),
(438,79,c),
(408,176,l),
(346,152,o),
(285,143,o),
(227,143,cs),
(197,143,o),
(168,145,o),
(140,149,c),
(140,287,o),
(244,417,o),
(410,506,c),
(276,593,l),
(290,749,l),
(190,749,l),
(202,596,l),
(124,533,o),
(50,404,o),
(50,249,cs),
(50,210,o),
(54,168,o),
(65,115,c),
(93,91,o),
(143,71,o),
(204,62,c),
(190,-112,l)
);
}
);
width = 460;
}
);
unicode = 162;
},
{
glyphname = currency;
layers = (
{
layerId = UUID0;
shapes = (
{
closed = 1;
nodes = (
(557,636,l),
(461,516,l),
(430,534,o),
(390,544,o),
(339,544,cs),
(288,544,o),
(248,534,o),
(217,516,c),
(121,636,l),
(50,565,l),
(166,472,l),
(141,437,o),
(130,394,o),
(130,347,cs),
(130,300,o),
(141,256,o),
(166,222,c),
(50,129,l),
(121,58,l),
(217,177,l),
(248,160,o),
(288,150,o),
(339,150,cs),
(390,150,o),
(430,160,o),
(461,177,c),
(557,58,l),
(628,129,l),
(512,222,l),
(537,256,o),
(548,300,o),
(548,347,cs),
(548,394,o),
(537,437,o),
(512,471,c),
(628,565,l)
);
},
{
closed = 1;
nodes = (
(424,407,o),
(424,373,cs),
(424,242,o),
(402,219,o),
(319,219,cs),
(300,219,o),
(278,225,o),
(265,234,c),
(257,256,o),
(252,286,o),
(252,319,cs),
(252,450,o),
(275,474,o),
(358,474,cs),
(377,474,o),
(398,469,o),
(412,460,c),
(419,438,o)
);
}
);
width = 678;
}
);
unicode = 164;
},
{
glyphname = dollar;
layers = (
{
layerId = UUID0;
shapes = (
{
closed = 1;
nodes = (
(220,222,o),
(220,159,cs),
(220,99,o),
(180,48,o),
(81,20,c),
(102,-45,l),
(157,-33,o),
(202,-20,o),
(239,-4,c),
(230,-112,l),
(330,-112,l),
(317,38,l),
(378,82,o),
(396,132,o),
(396,178,cs),
(396,238,o),
(349,318,o),
(349,381,cs),
(349,444,o),
(420,503,o),
(522,538,c),
(401,700,l),
(374,682,o),
(347,664,o),
(321,645,c),
(330,749,l),
(230,749,l),
(244,581,l),
(186,526,o),
(144,462,o),
(144,384,cs),
(144,284,o)
);
}
);
width = 574;
}
);
unicode = 36;
},
{
glyphname = florin;
layers = (
{
layerId = UUID0;
shapes = (
{
closed = 1;
nodes = (
(402,369,l),
(228,369,l),
(248,429,o),
(277,476,o),
(391,494,c),
(324,665,l),
(228,654,o),
(101,575,o),
(101,392,cs),
(101,369,l),
(30,369,l),
(20,289,l),
(106,295,l),
(117,187,o),
(142,81,o),
(142,-26,cs),
(142,-81,o),
(122,-114,o),
(71,-114,cs),
(54,-114,o),
(24,-107,o),
(4,-93,c),
(-26,-144,l),
(14,-176,o),
(55,-189,o),
(94,-189,cs),
(172,-189,o),
(234,-156,o),
(246,-59,cs),
(291,309,l),
(392,316,l)
);
}
);
width = 431;
}
);
unicode = 402;
},
{
glyphname = franc;
layers = (
{
layerId = UUID0;
shapes = (
{
closed = 1;
nodes = (
(442,169,l),
(271,169,l),
(283,270,l),
(439,294,l),
(439,387,l),
(297,387,l),
(320,572,l),
(531,597,l),
(534,664,l),
(93,650,l),
(127,169,l),
(70,169,l),
(60,89,l),
(132,94,l),
(140,-9,l),
(250,-4,l),
(263,104,l),
(432,116,l)
);
}
);
width = 574;
}
);
unicode = 8355;
},
{
glyphname = lira;
layers = (
{
layerId = UUID0;
shapes = (
{
closed = 1;
nodes = (
(553,113,l),
(208,60,l),
(248,94,o),
(273,136,o),
(289,186,c),
(432,196,l),
(442,249,l),
(303,249,l),
(308,276,o),
(311,306,o),
(312,336,c),
(452,346,l),
(462,399,l),
(314,399,l),
(315,420,o),
(315,441,o),
(315,463,cs),
(315,545,o),
(328,575,o),
(368,600,c),
(520,497,l),
(572,605,l),
(510,640,o),
(451,665,o),
(335,665,cs),
(260,665,o),
(186,652,o),
(130,617,c),
(121,591,o),
(117,564,o),
(117,537,cs),
(117,487,o),
(126,441,o),
(137,399,c),
(90,399,l),
(80,319,l),
(158,324,l),
(166,298,o),
(173,273,o),
(177,249,c),
(70,249,l),
(60,169,l),
(180,178,l),
(175,134,o),
(156,82,o),
(113,46,c),
(110,0,l),
(559,0,l)
);
}
);
width = 632;
}
);
unicode = 8356;
},
{
glyphname = sterling;
layers = (
{
layerId = UUID0;
shapes = (
{
closed = 1;
nodes = (
(462,349,l),
(313,349,l),
(314,386,o),
(315,424,o),
(315,463,cs),
(315,545,o),
(328,575,o),
(368,600,c),
(520,497,l),
(572,605,l),
(510,640,o),
(451,665,o),
(335,665,cs),
(260,665,o),
(186,652,o),
(130,617,c),
(121,591,o),
(117,564,o),
(117,537,cs),
(117,467,o),
(134,405,o),
(151,349,c),
(90,349,l),
(80,269,l),
(172,275,l),
(178,250,o),
(182,226,o),
(182,203,cs),
(182,155,o),
(165,90,o),
(113,46,c),
(110,0,l),
(559,0,l),
(553,113,l),
(221,62,l),
(218,69,l),
(276,123,o),
(299,199,o),
(308,285,c),
(452,296,l)
);
}
);
width = 632;
}
);
unicode = 163;
},
{
glyphname = yen;
layers = (
{
layerId = UUID0;
shapes = (
{
closed = 1;
nodes = (
(4,638,l),
(128,369,l),
(74,369,l),
(62,289,l),
(162,295,l),
(202,209,l),
(205,189,l),
(54,189,l),
(42,109,l),
(214,119,l),
(233,-14,l),
(333,-4,l),
(354,128,l),
(488,136,l),
(500,189,l),
(363,189,l),
(370,234,l),
(402,310,l),
(508,316,l),
(520,369,l),
(427,369,l),
(543,640,l),
(462,662,l),
(318,303,l),
(309,303,l),
(229,665,l)
);
}
);
width = 558;
}
);
unicode = 165;
},
{
glyphname = approxequal;
layers = (
{
layerId = UUID0;
shapes = (
{
closed = 1;
nodes = (
(491,486,o),
(453,498,o),
(414,498,cs),
(329,498,o),
(272,441,o),
(188,441,cs),
(155,441,o),
(123,450,o),
(97,472,c),
(90,359,l),
(115,336,o),
(148,327,o),
(180,327,cs),
(278,327,o),
(331,415,o),
(428,415,cs),
(458,415,o),
(487,407,o),
(512,392,c),
(522,464,l)
);
},
{
closed = 1;
nodes = (
(117,136,o),
(153,124,o),
(190,124,cs),
(278,124,o),
(332,188,o),
(418,188,cs),
(452,188,o),
(485,177,o),
(512,156,c),
(522,269,l),
(493,290,o),
(459,300,o),
(424,300,cs),
(328,300,o),
(274,209,o),
(177,209,cs),
(149,209,o),
(121,217,o),
(97,235,c),
(90,164,l)
);
}
);
width = 612;
}
);
unicode = 8776;
},
{
glyphname = asciitilde;
layers = (
{
layerId = UUID0;
shapes = (
{
closed = 1;
nodes = (
(491,386,o),
(453,398,o),
(414,398,cs),
(329,398,o),
(272,341,o),
(188,341,cs),
(155,341,o),
(123,350,o),
(97,372,c),
(90,259,l),
(115,236,o),
(148,227,o),
(180,227,cs),
(278,227,o),
(331,315,o),
(428,315,cs),
(458,315,o),
(487,307,o),
(512,292,c),
(522,364,l)
);
}
);
width = 612;
}
);
unicode = 126;
},
{
glyphname = equal;
layers = (
{
layerId = UUID0;
shapes = (
{
closed = 1;
nodes = (
(522,469,l),
(100,469,l),
(90,359,l),
(512,386,l)
);
},
{
closed = 1;
nodes = (
(90,159,l),
(512,159,l),
(522,269,l),
(100,242,l)
);
}
);
width = 612;
}
);
unicode = 61;
},
{
glyphname = greater;
layers = (
{
layerId = UUID0;
shapes = (
{
closed = 1;
nodes = (
(124,78,l),
(507,267,l),
(507,354,l),
(144,556,l),
(86,461,l),
(383,323,l),
(100,139,l)
);
}
);
width = 612;
}
);
unicode = 62;
},
{
glyphname = infinity;
layers = (
{
layerId = UUID0;
shapes = (
{
closed = 1;
nodes = (
(416,233,o),
(390,260,c),
(412,347,o),
(462,402,o),
(514,402,cs),
(574,402,o),
(596,358,o),
(596,290,c),
(576,237,o),
(536,215,o),
(495,215,cs),
(466,215,o)
);
},
{
closed = 1;
nodes = (
(276,500,o),
(220,500,cs),
(180,500,o),
(132,490,o),
(81,455,c),
(63,413,o),
(50,361,o),
(50,304,cs),
(50,216,o),
(65,113,o),
(205,113,cs),
(247,113,o),
(303,123,o),
(354,186,c),
(385,140,o),
(439,113,o),
(495,113,cs),
(535,113,o),
(583,123,o),
(634,158,c),
(652,200,o),
(665,252,o),
(665,309,cs),
(665,397,o),
(650,500,o),
(510,500,cs),
(468,500,o),
(412,490,o),
(361,427,c),
(330,473,o)
);
},
{
closed = 1;
nodes = (
(299,380,o),
(325,353,c),
(303,266,o),
(253,211,o),
(201,211,cs),
(141,211,o),
(119,257,o),
(119,323,c),
(139,376,o),
(179,398,o),
(220,398,cs),
(249,398,o)
);
}
);
width = 715;
}
);
unicode = 8734;
},
{
glyphname = integral;
layers = (
{
layerId = UUID0;
shapes = (
{
closed = 1;
nodes = (
(96,619,o),
(96,444,cs),
(96,428,o),
(97,410,o),
(140,-26,c),
(140,-81,o),
(120,-114,o),
(69,-114,cs),
(52,-114,o),
(22,-107,o),
(2,-93,c),
(-28,-144,l),
(12,-176,o),
(53,-189,o),
(92,-189,cs),
(170,-189,o),
(233,-157,o),
(244,-59,cs),
(305,501,ls),
(311,556,o),
(325,589,o),
(376,589,cs),
(393,589,o),
(423,582,o),
(443,568,c),
(473,619,l),
(433,651,o),
(365,665,o),
(306,665,cs),
(196,665,o)
);
}
);
width = 431;
}
);
unicode = 8747;
},
{
glyphname = less;
layers = (
{
layerId = UUID0;
shapes = (
{
closed = 1;
nodes = (
(488,556,l),
(105,367,l),
(105,280,l),
(468,78,l),
(526,173,l),
(229,311,l),
(512,495,l)
);
}
);
width = 612;
}
);
unicode = 60;
},
{
glyphname = logicalnot;
layers = (
{
layerId = UUID0;
shapes = (
{
closed = 1;
nodes = (
(512,90,l),
(512,369,l),
(90,369,l),
(80,259,l),
(430,281,l),
(413,81,l)
);
}
);
width = 612;
}
);
unicode = 172;
},
{
glyphname = minus;
layers = (
{
layerId = UUID0;
shapes = (
{
closed = 1;
nodes = (
(522,369,l),
(100,369,l),
(90,259,l),
(512,286,l)
);
}
);
width = 612;
}
);
unicode = 8722;
},
{
glyphname = multiply;
layers = (
{
layerId = UUID0;
shapes = (
{
closed = 1;
nodes = (
(526,172,l),
(372,326,l),
(500,468,l),
(448,534,l),
(306,392,l),
(171,527,l),
(86,456,l),
(235,321,l),
(93,179,l),
(164,94,l),
(309,255,l),
(460,120,l)
);
}
);
width = 612;
}
);
unicode = 215;
},
{
glyphname = partialdiff;
layers = (
{
layerId = UUID0;
shapes = (
{
closed = 1;
nodes = (
(272,45,o),
(246,45,cs),
(235,45,o),
(215,47,o),
(195,55,c),
(195,79,o),
(204,226,o),
(257,304,c),
(290,291,o),
(337,256,o),
(337,120,cs),
(337,104,o),
(336,86,o),
(335,66,c),
(300,51,o)
);
},
{
closed = 1;
nodes = (
(323,510,o),
(383,358,o),
(387,235,c),
(373,228,l),
(356,326,o),
(302,377,o),
(227,377,cs),
(208,377,o),
(187,374,o),
(165,367,c),
(99,323,o),
(24,236,o),
(24,95,cs),
(24,16,o),
(73,-24,o),
(209,-24,cs),
(303,-24,o),
(394,4,o),
(449,41,c),
(502,161,o),
(526,270,o),
(526,366,cs),
(526,529,o),
(449,647,o),
(314,720,c),
(169,602,l)
);
}
);
width = 585;
}
);
unicode = 8706;
},
{
glyphname = plus;
layers = (
{
layerId = UUID0;
shapes = (
{
closed = 1;
nodes = (
(361,98,l),
(361,276,l),
(512,286,l),
(522,369,l),
(361,369,l),
(361,520,l),
(251,530,l),
(261,369,l),
(100,369,l),
(90,259,l),
(267,270,l),
(278,108,l)
);
}
);
width = 612;
}
);
unicode = 43;
},
{
glyphname = product;
layers = (
{
layerId = UUID0;
shapes = (
{
closed = 1;
nodes = (
(610,-156,l),
(670,565,l),
(744,569,l),
(759,651,l),
(35,651,l),
(20,527,l),
(103,532,l),
(151,-165,l),
(250,-156,l),
(308,544,l),
(462,553,l),
(511,-165,l)
);
}
);
width = 779;
}
);
unicode = 8719;
},
{
glyphname = radical;
layers = (
{
layerId = UUID0;
shapes = (
{
closed = 1;
nodes = (
(35,238,l),
(232,-165,l),
(322,-150,l),
(597,686,l),
(772,704,l),
(782,757,l),
(520,757,l),
(288,-21,l),
(214,265,l)
);
}
);
width = 599;
}
);
unicode = 8730;
},
{
glyphname = summation;
layers = (
{
layerId = UUID0;
shapes = (
{
closed = 1;
nodes = (
(50,-169,l),
(614,-154,l),
(599,-30,l),
(279,-69,l),
(464,278,l),
(192,538,l),
(614,583,l),
(629,665,l),
(95,650,l),
(80,526,l),
(285,176,l),
(65,-87,l)
);
}
);
width = 639;
}
);
unicode = 8721;
},
{
glyphname = lozenge;
layers = (
{
layerId = UUID0;
shapes = (
{
closed = 1;
nodes = (
(230,-65,l),
(382,-65,l),
(549,300,l),
(389,665,l),
(237,665,l),
(70,300,l)
);
},
{
closed = 1;
nodes = (
(462,301,l),
(347,-9,l),
(157,299,l),
(271,609,l)
);
}
);
width = 619;
}
);
unicode = 9674;
},
{
glyphname = apple;
layers = (
{
layerId = UUID0;
shapes = (
{
closed = 1;
nodes = (
(563,-88,o),
(566,-88,cs),
(574,-88,o),
(581,-89,o),
(589,-89,cs),
(615,-89,o),
(617,-70,o),
(634,-60,cs),
(649,-52,o),
(670,-51,o),
(683,-42,cs),
(696,-33,o),
(701,-11,o),
(713,1,cs),
(723,11,o),
(739,12,o),
(748,23,cs),
(759,36,o),
(758,60,o),
(766,74,cs),
(776,91,o),
(800,92,o),
(800,120,cs),
(800,130,o),
(798,141,o),
(798,152,cs),
(798,177,o),
(820,180,o),
(823,200,c),
(823,214,o),
(812,229,o),
(812,244,cs),
(812,257,o),
(823,269,o),
(823,283,cs),
(823,305,o),
(799,319,o),
(799,344,cs),
(799,352,o),
(800,360,o),
(800,369,cs),
(800,397,o),
(775,400,o),
(764,418,cs),
(758,428,o),
(763,450,o),
(757,460,cs),
(746,479,o),
(720,483,o),
(706,496,cs),
(694,508,o),
(696,526,o),
(683,535,cs),
(669,545,o),
(653,542,o),
(638,550,cs),
(619,560,o),
(617,586,o),
(590,586,cs),
(580,586,o),
(570,583,o),
(562,583,cs),
(538,583,o),
(531,608,o),
(505,608,cs),
(491,608,o),
(474,596,o),
(460,596,cs),
(447,596,o),
(429,608,o),
(416,608,cs),
(394,608,o),
(386,585,o),
(361,585,cs),
(352,585,o),
(343,587,o),
(335,587,cs),
(310,586,o),
(303,558,o),
(286,549,cs),
(270,541,o),
(248,543,o),
(235,532,cs),
(224,522,o),
(220,501,o),
(210,491,cs),
(199,480,o),
(178,480,o),
(170,467,cs),
(163,456,o),
(166,435,o),
(159,424,cs),
(149,407,o),
(124,401,o),
(124,376,cs),
(124,368,o),
(125,359,o),
(125,351,cs),
(125,332,o),
(100,311,o),
(100,290,cs),
(100,275,o),
(112,265,o),
(112,248,cs),
(112,233,o),
(100,218,o),
(100,204,cs),
(100,183,o),
(125,168,o),
(125,149,cs),
(125,141,o),
(122,133,o),
(122,124,cs),
(122,98,o),
(148,87,o),
(156,75,cs),
(167,57,o),
(160,46,o),
(171,28,cs),
(181,12,o),
(197,15,o),
(210,4,cs),
(223,-7,o),
(222,-31,o),
(240,-42,cs),
(256,-52,o),
(263,-43,o),
(286,-55,cs),
(299,-62,o),
(311,-91,o),
(337,-91,cs),
(344,-91,o),
(353,-89,o),
(361,-89,cs),
(385,-89,o),
(396,-114,o),
(416,-114,cs),
(431,-114,o),
(446,-102,o),
(462,-102,cs),
(477,-102,o),
(493,-112,o),
(508,-112,cs),
(525,-112,o),
(538,-94,o),
(556,-89,cs),
(559,-88,o)
);
},
{
closed = 1;
nodes = (
(507,-13,o),
(495,-13,cs),
(484,-13,o),
(473,-6,o),
(462,-6,cs),
(450,-6,o),
(438,-15,o),
(426,-15,c),
(412,-13,o),
(405,3,o),
(386,3,cs),
(381,3,o),
(376,2,o),
(371,2,cs),
(352,2,o),
(345,23,o),
(334,28,cs),
(317,37,o),
(312,29,o),
(301,37,cs),
(288,45,o),
(289,63,o),
(279,71,cs),
(270,79,o),
(258,77,o),
(251,88,cs),
(243,101,o),
(248,110,o),
(240,123,cs),
(235,132,o),
(215,139,o),
(215,158,cs),
(215,163,o),
(217,169,o),
(217,174,cs),
(217,189,o),
(200,200,o),
(200,215,cs),
(200,226,o),
(208,237,o),
(208,248,cs),
(208,260,o),
(200,267,o),
(200,278,cs),
(200,294,o),
(217,308,o),
(217,324,cs),
(217,329,o),
(216,335,o),
(216,340,cs),
(216,359,o),
(235,363,o),
(242,376,cs),
(247,384,o),
(245,399,o),
(250,407,cs),
(257,416,o),
(271,416,o),
(279,424,cs),
(287,432,o),
(289,447,o),
(298,454,cs),
(307,462,o),
(323,460,o),
(334,466,cs),
(347,472,o),
(351,493,o),
(370,493,cs),
(376,493,o),
(381,492,o),
(387,492,cs),
(406,492,o),
(413,509,o),
(429,509,cs),
(439,509,o),
(451,500,o),
(461,500,cs),
(471,500,o),
(483,509,o),
(494,509,cs),
(513,509,o),
(516,491,o),
(535,491,cs),
(541,491,o),
(548,493,o),
(555,493,cs),
(575,493,o),
(576,474,o),
(589,467,cs),
(601,460,o),
(612,464,o),
(622,456,cs),
(632,449,o),
(630,436,o),
(639,428,cs),
(649,418,o),
(668,415,o),
(676,402,cs),
(680,394,o),
(677,379,o),
(681,371,cs),
(689,357,o),
(707,356,o),
(707,335,cs),
(707,329,o),
(706,323,o),
(706,318,cs),
(706,300,o),
(724,289,o),
(724,273,cs),
(724,264,o),
(716,254,o),
(716,245,cs),
(716,234,o),
(724,223,o),
(724,213,c),
(721,199,o),
(706,196,o),
(706,177,cs),
(706,171,o),
(707,164,o),
(707,157,cs),
(707,133,o),
(691,136,o),
(683,122,cs),
(677,111,o),
(677,94,o),
(670,84,cs),
(663,76,o),
(651,76,o),
(644,68,cs),
(636,60,o),
(632,45,o),
(622,38,cs),
(613,31,o),
(597,30,o),
(587,24,c),
(575,19,o),
(574,3,o),
(554,3,cs),
(549,3,o),
(544,4,o),
(539,4,cs),
(536,4,o),
(533,4,o),
(530,3,cs),
(517,0,o)
);
},
{
closed = 1;
nodes = (
(292,341,o),
(292,247,cs),
(292,153,o),
(368,77,o),
(462,77,cs),
(556,77,o),
(632,153,o),
(632,247,cs),
(632,341,o),
(556,417,o),
(462,417,cs),
(368,417,o)
);
},
{
closed = 1;
nodes = (
(505,117,l),
(420,117,l),
(420,292,l),
(366,292,l),
(366,360,l),
(557,360,l),
(557,292,l),
(505,292,l)
);
}
);
width = 923;
}
);
unicode = 63743;
},
{
glyphname = bar;
layers = (
{
layerId = UUID0;
shapes = (
{
closed = 1;
nodes = (
(217,-102,l),
(248,739,l),
(108,739,l),
(138,-102,l)
);
}
);
width = 356;
}
);
unicode = 124;
},
{
glyphname = brokenbar;
layers = (
{
layerId = UUID0;
shapes = (
{
closed = 1;
nodes = (
(108,739,l),
(116,500,l),
(239,500,l),
(248,739,l)
);
},
{
closed = 1;
nodes = (
(217,-102,l),
(228,192,l),
(127,192,l),
(138,-102,l)
);
}
);
width = 356;
}
);
unicode = 166;
},
{
glyphname = at;
layers = (
{
layerId = UUID0;
shapes = (
{
closed = 1;
nodes = (
(581,426,l),
(548,447,o),
(498,465,o),
(441,465,cs),
(318,465,o),
(278,411,o),
(278,306,cs),
(278,187,o),
(321,74,o),
(381,74,cs),
(453,74,o),
(515,115,o),
(551,206,c),
(558,206,l),
(569,116,o),
(623,61,o),
(712,61,cs),
(770,61,o),
(930,83,o),
(930,304,cs),
(930,513,o),
(815,695,o),
(520,695,cs),
(196,695,o),
(69,478,o),
(69,243,cs),
(69,34,o),
(183,-156,o),
(477,-156,cs),
(596,-156,o),
(686,-109,o),
(751,-62,c),
(710,0,l),
(655,-44,o),
(583,-89,o),
(480,-89,cs),
(239,-89,o),
(160,65,o),
(160,242,cs),
(160,445,o),
(247,629,o),
(517,629,cs),
(758,629,o),
(839,483,o),
(839,307,cs),
(839,175,o),
(789,119,o),
(728,119,cs),
(678,119,o),
(667,157,o),
(665,200,cs),
(665,208,o),
(665,216,o),
(666,224,cs),
(682,453,l),
(652,476,l)
);
},
{
closed = 1;
nodes = (
(465,145,o),
(429,137,c),
(417,167,o),
(406,265,o),
(406,319,cs),
(406,358,o),
(409,389,o),
(411,410,c),
(425,416,o),
(443,422,o),
(463,422,cs),
(490,422,o),
(523,415,o),
(546,399,c),
(546,194,o)
);
}
);
width = 999;
}
);
unicode = 64;
},
{
glyphname = ampersand;
layers = (
{
layerId = UUID0;
shapes = (
{
closed = 1;
nodes = (
(451,-209,l),
(490,10,o),
(491,10,o),
(536,275,c),
(642,287,l),
(645,354,l),
(242,338,l),
(294,431,o),
(373,515,o),
(471,578,c),
(278,700,l),
(128,591,o),
(70,398,o),
(70,217,cs),
(70,159,o),
(76,103,o),
(87,51,c),
(132,14,o),
(224,-14,o),
(330,-14,cs),
(341,-14,o),
(353,-13,o),
(364,-13,c),
(385,-218,l)
);
},
{
closed = 1;
nodes = (
(206,73,o),
(171,80,c),
(171,132,o),
(180,184,o),
(197,236,c),
(336,252,l),
(355,75,l),
(331,71,o),
(306,69,o),
(279,69,cs),
(243,69,o)
);
}
);
width = 615;
}
);
unicode = 38;
},
{
glyphname = paragraph;
layers = (
{
layerId = UUID0;
shapes = (
{
closed = 1;
nodes = (
(371,217,o),
(274,59,o),
(141,-47,c),
(324,-200,l),
(424,-117,o),
(542,120,o),
(542,417,cs),
(542,482,o),
(537,550,o),
(525,624,c),
(480,670,o),
(395,705,o),
(301,705,cs),
(130,705,o),
(80,625,o),
(80,470,cs),
(80,379,o),
(120,307,o),
(174,271,c),
(193,264,o),
(213,262,o),
(231,262,cs),
(302,262,o),
(364,306,o),
(403,390,c),
(415,382,l)
);
}
);
width = 632;
}
);
unicode = 182;
},
{
glyphname = copyright;
layers = (
{
layerId = UUID0;
shapes = (
{
closed = 1;
nodes = (
(100,239,o),
(250,108,o),
(435,108,cs),
(620,108,o),
(770,284,o),
(770,502,cs),
(770,655,o),
(694,785,o),
(460,785,cs),
(370,785,o),
(256,766,o),
(114,719,c),
(100,700,l)
);
},
{
closed = 1;
nodes = (
(730,633,o),
(730,502,cs),
(730,306,o),
(598,148,o),
(435,148,cs),
(274,148,o),
(143,268,o),
(140,685,c),
(271,727,o),
(377,745,o),
(460,745,cs),
(664,745,o)
);
},
{
closed = 1;
nodes = (
(366,652,o),
(299,538,o),
(299,396,cs),
(299,364,o),
(302,331,o),
(309,297,c),
(337,273,o),
(393,256,o),
(457,256,cs),
(491,256,o),
(526,260,o),
(563,272,c),
(541,341,l),
(498,325,o),
(457,320,o),
(419,320,cs),
(400,320,o),
(383,320,o),
(366,323,c),
(367,430,o),
(437,546,o),
(548,617,c),
(427,693,l)
);
}
);
width = 850;
}
);
unicode = 169;
},
{
glyphname = registered;
layers = (
{
layerId = UUID0;
shapes = (
{
closed = 1;
nodes = (
(100,239,o),
(250,108,o),
(435,108,cs),
(620,108,o),
(770,284,o),
(770,502,cs),
(770,655,o),
(694,785,o),
(460,785,cs),
(370,785,o),
(256,766,o),
(114,719,c),
(100,700,l)
);
},
{
closed = 1;
nodes = (
(730,633,o),
(730,502,cs),
(730,306,o),
(598,148,o),
(435,148,cs),
(274,148,o),
(143,268,o),
(140,685,c),
(271,727,o),
(377,745,o),
(460,745,cs),
(664,745,o)
);
},
{
closed = 1;
nodes = (
(373,268,l),
(388,418,l),
(402,421,l),
(564,246,l),
(609,273,l),
(578,334,o),
(541,400,o),
(509,461,c),
(562,491,o),
(595,534,o),
(595,587,cs),
(595,604,o),
(592,626,o),
(584,649,c),
(550,669,o),
(505,677,o),
(460,677,cs),
(390,677,o),
(311,661,o),
(274,649,c),
(307,262,l)
);
},
{
closed = 1;
nodes = (
(475,594,o),
(475,571,cs),
(475,533,o),
(445,489,o),
(393,463,c),
(410,628,l),
(420,631,o),
(429,633,o),
(438,633,c),
(463,617,o)
);
}
);
width = 850;
}
);
unicode = 174;
},
{
glyphname = section;
layers = (
{
layerId = UUID0;
shapes = (
{
closed = 1;
nodes = (
(425,390,o),
(425,493,cs),
(425,541,o),
(455,585,o),
(513,625,c),
(292,749,l),
(230,691,o),
(183,628,o),
(183,549,cs),
(183,512,o),
(191,477,o),
(205,448,c),
(117,410,o),
(57,353,o),
(57,276,cs),
(57,152,o),
(194,106,o),
(194,2,cs),
(194,-45,o),
(165,-89,o),
(108,-129,c),
(329,-254,l),
(391,-196,o),
(436,-133,o),
(436,-53,cs),
(436,-16,o),
(428,17,o),
(414,47,c),
(507,85,o),
(563,140,o),
(563,221,cs),
(563,344,o)
);
},
{
closed = 1;
nodes = (
(395,144,o),
(359,119,c),
(295,189,o),
(212,241,o),
(212,307,cs),
(212,331,o),
(223,350,o),
(262,377,c),
(328,302,o),
(408,254,o),
(408,189,cs),
(408,164,o)
);
}
);
width = 620;
}
);
unicode = 167;
},
{
glyphname = trademark;
layers = (
{
layerId = UUID0;
shapes = (
{
closed = 1;
nodes = (
(41,596,l),
(67,598,o),
(97,602,o),
(124,604,c),
(154,262,l),
(225,268,l),
(262,617,l),
(345,626,l),
(347,671,l),
(37,663,l)
);
},
{
closed = 1;
nodes = (
(845,271,l),
(827,662,l),
(678,671,l),
(611,397,l),
(553,668,l),
(404,662,l),
(376,267,l),
(441,270,l),
(451,548,l),
(578,261,l),
(636,270,l),
(701,575,l),
(786,261,l)
);
}
);
width = 923;
}
);
unicode = 8482;
},
{
glyphname = degree;
layers = (
{
layerId = UUID0;
shapes = (
{
closed = 1;
nodes = (
(230,636,o),
(238,634,c),
(252,616,o),
(265,586,o),
(265,557,cs),
(265,507,o),
(224,486,o),
(182,486,cs),
(170,486,o),
(159,488,o),
(151,490,c),
(136,508,o),
(123,537,o),
(123,567,cs),
(123,616,o),
(167,637,o),
(207,637,cs),
(219,637,o)
);
},
{
closed = 1;
nodes = (
(89,425,o),
(195,425,cs),
(301,425,o),
(340,488,o),
(340,562,cs),
(340,636,o),
(301,699,o),
(195,699,cs),
(89,699,o),
(50,636,o),
(50,562,cs),
(50,488,o)
);
}
);
width = 390;
}
);
unicode = 176;
},
{
glyphname = estimated;
layers = (
{
layerId = UUID0;
shapes = (
{
closed = 1;
nodes = (
(157,78,l),
(198,39,o),
(247,19,o),
(302,19,cs),
(385,19,o),
(449,59,o),
(495,139,c),
(530,118,l),
(461,26,o),
(409,-17,o),
(302,-17,cs),
(138,-17,o),
(44,107,o),
(44,259,cs),
(44,422,o),
(142,535,o),
(302,535,cs),
(473,535,o),
(554,413,o),
(561,259,c),
(157,259,l)
);
},
{
closed = 1;
nodes = (
(448,440,l),
(406,480,o),
(357,500,o),
(301,500,cs),
(244,500,o),
(196,480,o),
(157,440,c),
(157,295,l),
(448,295,l)
);
}
);
width = 600;
}
);
unicode = 8494;
},
{
glyphname = uni2113;
layers = (
{
layerId = UUID0;
shapes = (
{
closed = 1;
nodes = (
(327,63,o),
(308,58,o),
(291,58,cs),
(257,58,o),
(233,76,o),
(233,120,cs),
(233,123,o),
(234,127,o),
(234,131,cs),
(284,716,l),
(70,683,l),
(111,120,ls),
(119,12,o),
(183,-24,o),
(270,-24,cs),
(304,-24,o),
(338,-15,o),
(373,5,c),
(346,71,l)
);
}
);
width = 354;
}
);
unicode = 8467;
},
{
glyphname = asciicircum;
layers = (
{
layerId = UUID0;
shapes = (
{
closed = 1;
nodes = (
(503,386,l),
(354,669,l),
(267,669,l),
(105,406,l),
(200,348,l),
(298,545,l),
(442,362,l)
);
}
);
width = 612;
}
);
unicode = 94;
},
{
glyphname = dagger;
layers = (
{
layerId = UUID0;
shapes = (
{
closed = 1;
nodes = (
(585,568,l),
(426,542,l),
(443,739,l),
(201,719,l),
(216,542,l),
(50,568,l),
(60,416,l),
(226,433,l),
(282,-202,l),
(361,-202,l),
(416,434,l),
(595,416,l)
);
}
);
width = 645;
}
);
unicode = 8224;
},
{
glyphname = daggerdbl;
layers = (
{
layerId = UUID0;
shapes = (
{
closed = 1;
nodes = (
(60,-31,l),
(232,-3,l),
(202,-202,l),
(444,-182,l),
(416,-4,l),
(595,-31,l),
(585,121,l),
(400,101,l),
(373,276,l),
(397,435,l),
(595,416,l),
(585,568,l),
(413,540,l),
(443,739,l),
(201,719,l),
(228,541,l),
(50,568,l),
(60,416,l),
(245,435,l),
(272,261,l),
(248,101,l),
(50,121,l)
);
}
);
width = 645;
}
);
unicode = 8225;
},
{
glyphname = acute;
layers = (
{
layerId = UUID0;
shapes = (
{
closed = 1;
nodes = (
(164,563,l),
(368,628,l),
(308,753,l),
(130,631,l)
);
}
);
width = 438;
}
);
unicode = 180;
},
{
glyphname = breve;
layers = (
{
layerId = UUID0;
shapes = (
{
closed = 1;
nodes = (
(309,699,o),
(290,657,o),
(246,657,cs),
(206,657,o),
(188,688,o),
(163,732,c),
(110,699,l),
(137,634,o),
(171,556,o),
(244,556,cs),
(302,556,o),
(355,592,o),
(409,683,c),
(325,738,l)
);
}
);
width = 479;
}
);
unicode = 728;
},
{
glyphname = caron;
layers = (
{
layerId = UUID0;
shapes = (
{
closed = 1;
nodes = (
(308,738,l),
(232,676,l),
(114,741,l),
(80,693,l),
(196,556,l),
(383,648,l)
);
}
);
width = 463;
}
);
unicode = 711;
},
{
glyphname = cedilla;
layers = (
{
layerId = UUID0;
shapes = (
{
closed = 1;
nodes = (
(161,-201,o),
(208,-208,o),
(238,-208,cs),
(288,-208,o),
(384,-187,o),
(384,-108,cs),
(384,-38,o),
(304,9,o),
(242,44,c),
(214,-6,l),
(276,-38,o),
(307,-71,o),
(323,-104,c),
(301,-113,o),
(287,-117,o),
(262,-117,cs),
(225,-117,o),
(197,-108,o),
(158,-91,c),
(124,-187,l)
);
}
);
width = 460;
}
);
unicode = 184;
},
{
glyphname = circumflex;
layers = (
{
layerId = UUID0;
shapes = (
{
closed = 1;
nodes = (
(114,566,l),
(232,631,l),
(308,569,l),
(383,659,l),
(196,751,l),
(80,614,l)
);
}
);
width = 463;
}
);
unicode = 710;
},
{
glyphname = dieresis;
layers = (
{
layerId = UUID0;
shapes = (
{
closed = 1;
nodes = (
(73,573,o),
(114,573,cs),
(155,573,o),
(190,611,o),
(190,657,cs),
(190,703,o),
(155,741,o),
(114,741,cs),
(73,741,o),
(38,703,o),
(38,657,cs),
(38,611,o)
);
},
{
closed = 1;
nodes = (
(283,573,o),
(324,573,cs),
(365,573,o),
(400,611,o),
(400,657,cs),
(400,703,o),
(365,741,o),
(324,741,cs),
(283,741,o),
(248,703,o),
(248,657,cs),
(248,611,o)
);
}
);
width = 438;
}
);
unicode = 168;
},
{
glyphname = dotaccent;
layers = (
{
layerId = UUID0;
shapes = (
{
closed = 1;
nodes = (
(241,641,o),
(232,605,c),
(203,594,o),
(160,588,o),
(121,588,cs),
(102,588,o),
(83,589,o),
(67,593,c),
(67,635,o),
(76,684,o),
(95,721,c),
(144,733,o),
(194,733,o),
(244,733,c),
(244,677,o)
);
}
);
width = 307;
}
);
unicode = 729;
},
{
glyphname = grave;
layers = (
{
layerId = UUID0;
shapes = (
{
closed = 1;
nodes = (
(110,628,l),
(314,563,l),
(348,631,l),
(170,753,l)
);
}
);
width = 438;
}
);
unicode = 96;
},
{
glyphname = hungarumlaut;
layers = (
{
layerId = UUID0;
shapes = (
{
closed = 1;
nodes = (
(111,558,l),
(286,653,l),
(209,756,l),
(75,609,l)
);
},
{
closed = 1;
nodes = (
(331,558,l),
(506,653,l),
(429,756,l),
(295,609,l)
);
}
);
width = 511;
}
);
unicode = 733;
},
{
glyphname = macron;
layers = (
{
layerId = UUID0;
shapes = (
{
closed = 1;
nodes = (
(345,703,l),
(84,703,l),
(77,584,l),
(338,611,l)
);
}
);
width = 382;
}
);
unicode = 175;
},
{
glyphname = ogonek;
layers = (
{
layerId = UUID0;
shapes = (
{
closed = 1;
nodes = (
(311,-108,o),
(283,-117,o),
(246,-117,cs),
(221,-117,o),
(207,-113,o),
(185,-104,c),
(201,-71,o),
(232,-38,o),
(294,-6,c),
(266,44,l),
(204,9,o),
(124,-38,o),
(124,-108,cs),
(124,-187,o),
(220,-208,o),
(270,-208,cs),
(300,-208,o),
(347,-201,o),
(384,-187,c),
(350,-91,l)
);
}
);
width = 460;
}
);
unicode = 731;
},
{
glyphname = ring;
layers = (
{
layerId = UUID0;
shapes = (
{
closed = 1;
nodes = (
(268,717,o),
(247,747,c),
(216,759,o),
(179,765,o),
(153,765,cs),
(75,765,o),
(34,714,o),
(34,651,cs),
(34,615,o),
(39,585,o),
(60,555,c),
(91,543,o),
(128,537,o),
(154,537,cs),
(232,537,o),
(273,588,o),
(273,651,cs),
(273,687,o)
);
},
{
closed = 1;
nodes = (
(189,602,o),
(153,585,c),
(142,585,o),
(122,588,o),
(116,592,c),
(112,604,o),
(109,619,o),
(109,637,cs),
(109,668,o),
(117,700,o),
(153,717,c),
(164,717,o),
(184,714,o),
(190,709,c),
(194,698,o),
(197,682,o),
(197,664,cs),
(197,634,o)
);
}
);
width = 307;
}
);
unicode = 730;
},
{
glyphname = tilde;
layers = (
{
layerId = UUID0;
shapes = (
{
closed = 1;
nodes = (
(305,708,o),
(320,742,c),
(380,726,l),
(369,641,o),
(342,585,o),
(295,585,cs),
(262,585,o),
(225,611,o),
(190,611,cs),
(175,611,o),
(162,600,o),
(147,566,c),
(87,582,l),
(98,667,o),
(125,723,o),
(172,723,cs),
(205,723,o),
(242,697,o),
(277,697,cs),
(292,697,o)
);
}
);
width = 460;
}
);
unicode = 732;
},
{
glyphname = acute.case;
layers = (
{
layerId = UUID0;
shapes = (
{
closed = 1;
nodes = (
(174,713,l),
(378,778,l),
(318,903,l),
(140,781,l)
);
}
);
width = 438;
}
);
},
{
glyphname = breve.case;
layers = (
{
layerId = UUID0;
shapes = (
{
closed = 1;
nodes = (
(309,849,o),
(290,807,o),
(246,807,cs),
(206,807,o),
(188,838,o),
(163,882,c),
(110,849,l),
(137,784,o),
(171,706,o),
(244,706,cs),
(302,706,o),
(355,742,o),
(409,833,c),
(325,888,l)
);
}
);
width = 479;
}
);
},
{
glyphname = caron.case;
layers = (
{
layerId = UUID0;
shapes = (
{
closed = 1;
nodes = (
(308,888,l),
(232,826,l),
(114,891,l),
(80,843,l),
(196,706,l),
(383,798,l)
);
}
);
width = 463;
}
);
},
{
glyphname = circumflex.case;
layers = (
{
layerId = UUID0;
shapes = (
{
closed = 1;
nodes = (
(114,716,l),
(232,781,l),
(308,719,l),
(383,809,l),
(196,901,l),
(80,764,l)
);
}
);
width = 463;
}
);
},
{
glyphname = dieresis.case;
layers = (
{
layerId = UUID0;
shapes = (
{
closed = 1;
nodes = (
(73,723,o),
(114,723,cs),
(155,723,o),
(190,761,o),
(190,807,cs),
(190,853,o),
(155,891,o),
(114,891,cs),
(73,891,o),
(38,853,o),
(38,807,cs),
(38,761,o)
);
},
{
closed = 1;
nodes = (
(283,723,o),
(324,723,cs),
(365,723,o),
(400,761,o),
(400,807,cs),
(400,853,o),
(365,891,o),
(324,891,cs),
(283,891,o),
(248,853,o),
(248,807,cs),
(248,761,o)
);
}
);
width = 438;
}
);
},
{
glyphname = dotaccent.case;
layers = (
{
layerId = UUID0;
shapes = (
{
closed = 1;
nodes = (
(241,791,o),
(232,755,c),
(203,744,o),
(160,738,o),
(121,738,cs),
(102,738,o),
(83,739,o),
(67,743,c),
(67,785,o),
(76,834,o),
(95,871,c),
(144,883,o),
(194,883,o),
(244,883,c),
(244,827,o)
);
}
);
width = 307;
}
);
},
{
glyphname = grave.case;
layers = (
{
layerId = UUID0;
shapes = (
{
closed = 1;
nodes = (
(110,778,l),
(314,713,l),
(348,781,l),
(170,903,l)
);
}
);
width = 438;
}
);
},
{
glyphname = hungarumlaut.case;
layers = (
{
layerId = UUID0;
shapes = (
{
closed = 1;
nodes = (
(111,708,l),
(286,803,l),
(209,906,l),
(75,759,l)
);
},
{
closed = 1;
nodes = (
(331,708,l),
(506,803,l),
(429,906,l),
(295,759,l)
);
}
);
width = 511;
}
);
},
{
glyphname = macron.case;
layers = (
{
layerId = UUID0;
shapes = (
{
closed = 1;
nodes = (
(345,853,l),
(84,853,l),
(77,734,l),
(338,761,l)
);
}
);
width = 382;
}
);
},
{
glyphname = ring.case;
layers = (
{
layerId = UUID0;
shapes = (
{
closed = 1;
nodes = (
(268,867,o),
(247,897,c),
(216,909,o),
(179,915,o),
(153,915,cs),
(75,915,o),
(34,864,o),
(34,801,cs),
(34,765,o),
(39,735,o),
(60,705,c),
(91,693,o),
(128,687,o),
(154,687,cs),
(232,687,o),
(273,738,o),
(273,801,cs),
(273,837,o)
);
},
{
closed = 1;
nodes = (
(189,752,o),
(153,735,c),
(142,735,o),
(122,738,o),
(116,742,c),
(112,754,o),
(109,769,o),
(109,787,cs),
(109,818,o),
(117,850,o),
(153,867,c),
(164,867,o),
(184,864,o),
(190,859,c),
(194,848,o),
(197,832,o),
(197,814,cs),
(197,784,o)
);
}
);
width = 307;
}
);
},
{
glyphname = tilde.case;
layers = (
{
layerId = UUID0;
shapes = (
{
closed = 1;
nodes = (
(305,858,o),
(320,892,c),
(380,876,l),
(369,791,o),
(342,735,o),
(295,735,cs),
(262,735,o),
(225,761,o),
(190,761,cs),
(175,761,o),
(162,750,o),
(147,716,c),
(87,732,l),
(98,817,o),
(125,873,o),
(172,873,cs),
(205,873,o),
(242,847,o),
(277,847,cs),
(292,847,o)
);
}
);
width = 460;
}
);
},
{
glyphname = commaaccent;
layers = (
{
layerId = UUID0;
shapes = (
{
closed = 1;
nodes = (
(145,-223,o),
(135,-251,o),
(99,-280,c),
(153,-331,l),
(208,-282,o),
(228,-223,o),
(228,-149,cs),
(228,-124,o),
(226,-100,o),
(222,-78,c),
(207,-62,o),
(178,-51,o),
(145,-51,cs),
(86,-51,o),
(70,-78,o),
(70,-130,cs),
(70,-178,o),
(88,-209,o),
(117,-209,cs),
(130,-209,o),
(139,-205,o),
(146,-199,c),
(150,-201,l)
);
}
);
width = 300;
}
);
unicode = 63171;
},
{
glyphname = uni02C9;
layers = (
{
layerId = UUID0;
shapes = (
{
closed = 1;
nodes = (
(325,703,l),
(64,703,l),
(57,584,l),
(318,611,l)
);
}
);
width = 382;
}
);
unicode = 713;
},
{
glyphname = eslash;
layers = (
{
layerId = UUID0;
shapes = (
{
closed = 1;
nodes = (
(331,525,l),
(-20,356,l),
(17,281,l),
(356,474,l)
);
}
);
width = 346;
}
);
},
{
glyphname = barra;
layers = (
{
layerId = UUID0;
shapes = (
{
closed = 1;
nodes = (
(382,369,l),
(10,369,l),
(0,289,l),
(372,316,l)
);
}
);
width = 382;
}
);
},
{
glyphname = ringacute;
layers = (
{
layerId = UUID0;
shapes = (
{
closed = 1;
nodes = (
(271,694,o),
(264,714,c),
(356,777,l),
(285,853,l),
(218,757,l),
(198,765,o),
(165,765,o),
(153,765,cs),
(75,765,o),
(34,714,o),
(34,651,cs),
(34,615,o),
(39,585,o),
(60,555,c),
(91,543,o),
(128,537,o),
(154,537,cs),
(232,537,o),
(273,588,o),
(273,651,cs),
(273,674,o)
);
},
{
closed = 1;
nodes = (
(189,602,o),
(153,585,c),
(142,585,o),
(122,588,o),
(116,592,c),
(112,604,o),
(109,619,o),
(109,637,cs),
(109,668,o),
(117,700,o),
(153,717,c),
(164,717,o),
(184,714,o),
(190,709,c),
(194,698,o),
(197,682,o),
(197,664,cs),
(197,634,o)
);
}
);
width = 307;
}
);
},
{
glyphname = ringacute.case;
layers = (
{
layerId = UUID0;
shapes = (
{
closed = 1;
nodes = (
(271,844,o),
(264,864,c),
(356,927,l),
(285,1003,l),
(218,907,l),
(198,915,o),
(165,915,o),
(153,915,cs),
(75,915,o),
(34,864,o),
(34,801,cs),
(34,765,o),
(39,735,o),
(60,705,c),
(91,693,o),
(128,687,o),
(154,687,cs),
(232,687,o),
(273,738,o),
(273,801,cs),
(273,824,o)
);
},
{
closed = 1;
nodes = (
(189,752,o),
(153,735,c),
(142,735,o),
(122,738,o),
(116,742,c),
(112,754,o),
(109,769,o),
(109,787,cs),
(109,818,o),
(117,850,o),
(153,867,c),
(164,867,o),
(184,864,o),
(190,859,c),
(194,848,o),
(197,832,o),
(197,814,cs),
(197,784,o)
);
}
